<svg width="554" height="468" viewBox="0 0 554 468" fill="none" xmlns="http://www.w3.org/2000/svg">
<rect width="554" height="468" rx="36" fill="#EBF1FA"/>
<path d="M48.204 43.084L46.422 47.134C51.282 48.16 52.794 48.646 54.63 49.834C57.978 52.048 59.814 55.504 59.814 59.662C59.814 67.6 53.064 73.702 44.262 73.702C40.05 73.702 37.242 72.028 37.242 69.436C37.242 67.654 38.538 66.412 40.374 66.412C41.94 66.412 42.912 67.114 44.208 69.22C45.288 71.056 45.936 71.542 47.07 71.542C50.85 71.542 54.198 67.492 54.198 62.956C54.198 59.5 52.254 56.422 48.96 54.694C46.908 53.668 45.18 53.29 41.616 53.128L48.528 37.252H63.648L61.758 43.084H48.204ZM81.036 36.496C85.95 36.496 89.136 41.626 89.136 49.51C89.136 57.88 84.978 67.492 79.686 71.434C77.634 73 75.474 73.756 73.26 73.756C68.022 73.756 64.62 69.058 64.62 61.822C64.62 53.992 67.86 45.406 72.774 40.33C75.15 37.846 78.12 36.496 81.036 36.496ZM80.928 38.062C78.984 38.062 77.472 40.222 75.528 45.73C73.098 52.75 70.182 65.17 70.182 68.626C70.182 70.786 71.262 72.19 72.882 72.19C75.042 72.19 76.554 70.138 78.282 65.008C79.362 61.822 82.224 50.698 82.98 46.594C83.358 44.758 83.574 42.922 83.574 41.95C83.574 39.52 82.602 38.062 80.928 38.062ZM101.988 54.262L101.934 43.084H106.632L106.686 54.262H117.81V58.96H106.686L106.794 70.138H102.042L101.988 58.96H90.864V54.262H101.988Z" fill="#393939"/>
<path d="M37.4382 124V110.909H42.1044C43.1229 110.909 43.9666 111.094 44.6357 111.465C45.3047 111.836 45.8054 112.343 46.1378 112.987C46.4702 113.626 46.6364 114.346 46.6364 115.147C46.6364 115.952 46.468 116.677 46.1314 117.32C45.799 117.96 45.2962 118.467 44.6229 118.842C43.9538 119.212 43.1122 119.398 42.098 119.398H38.8892V117.723H41.919C42.5625 117.723 43.0845 117.612 43.4851 117.391C43.8857 117.165 44.1797 116.858 44.3672 116.47C44.5547 116.082 44.6484 115.641 44.6484 115.147C44.6484 114.653 44.5547 114.214 44.3672 113.83C44.1797 113.447 43.8835 113.146 43.4787 112.929C43.0781 112.712 42.5497 112.603 41.8935 112.603H39.4134V124H37.4382ZM48.7985 124V114.182H50.6458V115.741H50.748C50.927 115.213 51.2424 114.798 51.6941 114.495C52.15 114.188 52.6657 114.035 53.2409 114.035C53.3603 114.035 53.5009 114.039 53.6628 114.048C53.829 114.056 53.959 114.067 54.0527 114.08V115.908C53.976 115.886 53.8397 115.863 53.6436 115.837C53.4476 115.808 53.2516 115.793 53.0556 115.793C52.6039 115.793 52.2012 115.888 51.8475 116.08C51.498 116.268 51.2211 116.53 51.0165 116.866C50.812 117.199 50.7097 117.578 50.7097 118.004V124H48.7985ZM59.4908 124.198C58.5703 124.198 57.767 123.987 57.081 123.565C56.3949 123.143 55.8622 122.553 55.483 121.795C55.1037 121.036 54.9141 120.15 54.9141 119.136C54.9141 118.117 55.1037 117.227 55.483 116.464C55.8622 115.701 56.3949 115.109 57.081 114.687C57.767 114.265 58.5703 114.054 59.4908 114.054C60.4112 114.054 61.2145 114.265 61.9006 114.687C62.5866 115.109 63.1193 115.701 63.4986 116.464C63.8778 117.227 64.0675 118.117 64.0675 119.136C64.0675 120.15 63.8778 121.036 63.4986 121.795C63.1193 122.553 62.5866 123.143 61.9006 123.565C61.2145 123.987 60.4112 124.198 59.4908 124.198ZM59.4972 122.594C60.0938 122.594 60.5881 122.436 60.9801 122.121C61.3722 121.805 61.6619 121.386 61.8494 120.862C62.0412 120.337 62.1371 119.76 62.1371 119.129C62.1371 118.503 62.0412 117.928 61.8494 117.403C61.6619 116.875 61.3722 116.451 60.9801 116.131C60.5881 115.812 60.0938 115.652 59.4972 115.652C58.8963 115.652 58.3977 115.812 58.0014 116.131C57.6094 116.451 57.3175 116.875 57.1257 117.403C56.9382 117.928 56.8445 118.503 56.8445 119.129C56.8445 119.76 56.9382 120.337 57.1257 120.862C57.3175 121.386 57.6094 121.805 58.0014 122.121C58.3977 122.436 58.8963 122.594 59.4972 122.594ZM66.2008 114.182H68.112V124.639C68.112 125.295 67.9927 125.849 67.7541 126.301C67.5197 126.753 67.1703 127.096 66.7058 127.33C66.2456 127.565 65.6767 127.682 64.9991 127.682C64.9309 127.682 64.867 127.682 64.8074 127.682C64.7434 127.682 64.6774 127.68 64.6092 127.675V126.033C64.6689 126.033 64.7221 126.033 64.769 126.033C64.8116 126.033 64.8606 126.033 64.916 126.033C65.3677 126.033 65.6937 125.911 65.894 125.668C66.0985 125.43 66.2008 125.082 66.2008 124.626V114.182ZM67.1468 112.667C66.8145 112.667 66.5289 112.556 66.2903 112.335C66.0559 112.109 65.9387 111.84 65.9387 111.529C65.9387 111.214 66.0559 110.945 66.2903 110.724C66.5289 110.498 66.8145 110.385 67.1468 110.385C67.4792 110.385 67.7626 110.498 67.997 110.724C68.2356 110.945 68.3549 111.214 68.3549 111.529C68.3549 111.84 68.2356 112.109 67.997 112.335C67.7626 112.556 67.4792 112.667 67.1468 112.667ZM74.9148 124.198C73.9474 124.198 73.1143 123.991 72.4155 123.578C71.7209 123.161 71.1839 122.575 70.8047 121.82C70.4297 121.062 70.2422 120.173 70.2422 119.155C70.2422 118.149 70.4297 117.263 70.8047 116.496C71.1839 115.729 71.7124 115.13 72.3899 114.7C73.0717 114.269 73.8686 114.054 74.7805 114.054C75.3345 114.054 75.8714 114.146 76.3913 114.329C76.9112 114.512 77.3778 114.8 77.7912 115.192C78.2045 115.584 78.5305 116.093 78.7692 116.719C79.0078 117.342 79.1271 118.098 79.1271 118.989V119.666H71.3224V118.234H77.2543C77.2543 117.732 77.152 117.286 76.9474 116.898C76.7429 116.506 76.4553 116.197 76.0845 115.972C75.718 115.746 75.2876 115.633 74.7933 115.633C74.2564 115.633 73.7876 115.765 73.3871 116.029C72.9908 116.289 72.6839 116.63 72.4666 117.052C72.2536 117.469 72.147 117.923 72.147 118.413V119.532C72.147 120.188 72.2621 120.746 72.4922 121.207C72.7266 121.667 73.0526 122.018 73.4702 122.261C73.8878 122.5 74.3757 122.619 74.9339 122.619C75.2962 122.619 75.6264 122.568 75.9247 122.466C76.223 122.359 76.4808 122.202 76.6982 121.993C76.9155 121.784 77.0817 121.526 77.1967 121.219L79.0057 121.545C78.8608 122.078 78.6009 122.545 78.2259 122.945C77.8551 123.342 77.3885 123.651 76.826 123.872C76.2678 124.089 75.6307 124.198 74.9148 124.198ZM85.3833 124.198C84.4331 124.198 83.6149 123.983 82.9288 123.553C82.247 123.118 81.7228 122.519 81.3564 121.756C80.9899 120.994 80.8066 120.12 80.8066 119.136C80.8066 118.138 80.9941 117.259 81.3691 116.496C81.7441 115.729 82.2725 115.13 82.9544 114.7C83.6362 114.269 84.4395 114.054 85.3642 114.054C86.1099 114.054 86.7747 114.192 87.3585 114.469C87.9423 114.742 88.4132 115.126 88.7711 115.62C89.1333 116.114 89.3485 116.692 89.4167 117.352H87.5566C87.4544 116.892 87.22 116.496 86.8535 116.163C86.4913 115.831 86.0055 115.665 85.3961 115.665C84.8635 115.665 84.3968 115.805 83.9963 116.087C83.6 116.364 83.291 116.76 83.0694 117.276C82.8478 117.787 82.737 118.392 82.737 119.091C82.737 119.807 82.8457 120.425 83.063 120.945C83.2804 121.464 83.5872 121.867 83.9835 122.153C84.3841 122.438 84.8549 122.581 85.3961 122.581C85.7583 122.581 86.0865 122.515 86.3805 122.383C86.6788 122.246 86.9281 122.053 87.1284 121.801C87.3329 121.55 87.4757 121.247 87.5566 120.893H89.4167C89.3485 121.528 89.1419 122.095 88.7967 122.594C88.4515 123.092 87.9892 123.484 87.4096 123.77C86.8343 124.055 86.1589 124.198 85.3833 124.198ZM96.0437 114.182V115.716H90.6808V114.182H96.0437ZM92.119 111.83H94.0302V121.117C94.0302 121.488 94.0856 121.767 94.1964 121.955C94.3072 122.138 94.4499 122.263 94.6246 122.332C94.8036 122.396 94.9975 122.428 95.2063 122.428C95.3597 122.428 95.494 122.417 95.609 122.396C95.7241 122.374 95.8136 122.357 95.8775 122.344L96.2227 123.923C96.1119 123.966 95.9542 124.009 95.7496 124.051C95.5451 124.098 95.2894 124.124 94.9826 124.128C94.4798 124.136 94.011 124.047 93.5763 123.859C93.1417 123.672 92.7901 123.382 92.5217 122.99C92.2532 122.598 92.119 122.106 92.119 121.513V111.83ZM105.357 116.579L103.625 116.886C103.552 116.664 103.437 116.453 103.279 116.253C103.126 116.053 102.917 115.888 102.653 115.761C102.389 115.633 102.059 115.569 101.662 115.569C101.121 115.569 100.669 115.69 100.307 115.933C99.945 116.172 99.7638 116.481 99.7638 116.86C99.7638 117.188 99.8853 117.452 100.128 117.653C100.371 117.853 100.763 118.017 101.304 118.145L102.864 118.503C103.767 118.712 104.441 119.033 104.884 119.468C105.327 119.903 105.549 120.467 105.549 121.162C105.549 121.75 105.378 122.274 105.037 122.734C104.701 123.19 104.23 123.548 103.625 123.808C103.024 124.068 102.327 124.198 101.534 124.198C100.435 124.198 99.538 123.964 98.8434 123.495C98.1488 123.022 97.7227 122.351 97.565 121.482L99.4123 121.2C99.5273 121.682 99.7638 122.046 100.122 122.293C100.48 122.536 100.946 122.658 101.522 122.658C102.148 122.658 102.649 122.528 103.024 122.268C103.399 122.004 103.586 121.682 103.586 121.303C103.586 120.996 103.471 120.738 103.241 120.529C103.015 120.32 102.668 120.163 102.199 120.056L100.537 119.692C99.6211 119.483 98.9435 119.151 98.5046 118.695C98.07 118.239 97.8526 117.661 97.8526 116.962C97.8526 116.383 98.0146 115.876 98.3384 115.441C98.6623 115.006 99.1097 114.668 99.6808 114.425C100.252 114.178 100.906 114.054 101.643 114.054C102.704 114.054 103.539 114.284 104.149 114.744C104.758 115.2 105.161 115.812 105.357 116.579ZM116.089 124.192C115.297 124.192 114.589 123.989 113.967 123.585C113.349 123.175 112.863 122.594 112.51 121.839C112.16 121.081 111.985 120.171 111.985 119.11C111.985 118.049 112.162 117.141 112.516 116.387C112.874 115.633 113.364 115.055 113.986 114.655C114.608 114.254 115.314 114.054 116.102 114.054C116.711 114.054 117.201 114.156 117.572 114.361C117.947 114.561 118.237 114.795 118.441 115.064C118.65 115.332 118.812 115.569 118.927 115.773H119.042V110.909H120.953V124H119.087V122.472H118.927C118.812 122.681 118.646 122.92 118.429 123.188C118.216 123.457 117.922 123.691 117.547 123.891C117.172 124.092 116.686 124.192 116.089 124.192ZM116.511 122.562C117.061 122.562 117.525 122.417 117.904 122.127C118.288 121.833 118.578 121.426 118.774 120.906C118.974 120.386 119.074 119.781 119.074 119.091C119.074 118.409 118.976 117.812 118.78 117.301C118.584 116.79 118.297 116.391 117.917 116.106C117.538 115.82 117.069 115.678 116.511 115.678C115.936 115.678 115.456 115.827 115.073 116.125C114.689 116.423 114.4 116.83 114.203 117.346C114.012 117.862 113.916 118.443 113.916 119.091C113.916 119.747 114.014 120.337 114.21 120.862C114.406 121.386 114.696 121.801 115.079 122.108C115.467 122.411 115.944 122.562 116.511 122.562ZM127.913 124.198C126.945 124.198 126.112 123.991 125.414 123.578C124.719 123.161 124.182 122.575 123.803 121.82C123.428 121.062 123.24 120.173 123.24 119.155C123.24 118.149 123.428 117.263 123.803 116.496C124.182 115.729 124.71 115.13 125.388 114.7C126.07 114.269 126.867 114.054 127.779 114.054C128.333 114.054 128.869 114.146 129.389 114.329C129.909 114.512 130.376 114.8 130.789 115.192C131.203 115.584 131.529 116.093 131.767 116.719C132.006 117.342 132.125 118.098 132.125 118.989V119.666H124.32V118.234H130.252C130.252 117.732 130.15 117.286 129.945 116.898C129.741 116.506 129.453 116.197 129.083 115.972C128.716 115.746 128.286 115.633 127.791 115.633C127.254 115.633 126.786 115.765 126.385 116.029C125.989 116.289 125.682 116.63 125.465 117.052C125.252 117.469 125.145 117.923 125.145 118.413V119.532C125.145 120.188 125.26 120.746 125.49 121.207C125.725 121.667 126.051 122.018 126.468 122.261C126.886 122.5 127.374 122.619 127.932 122.619C128.294 122.619 128.624 122.568 128.923 122.466C129.221 122.359 129.479 122.202 129.696 121.993C129.914 121.784 130.08 121.526 130.195 121.219L132.004 121.545C131.859 122.078 131.599 122.545 131.224 122.945C130.853 123.342 130.387 123.651 129.824 123.872C129.266 124.089 128.629 124.198 127.913 124.198ZM136.157 110.909V124H134.246V110.909H136.157ZM138.728 124V114.182H140.639V124H138.728ZM139.693 112.667C139.361 112.667 139.075 112.556 138.837 112.335C138.602 112.109 138.485 111.84 138.485 111.529C138.485 111.214 138.602 110.945 138.837 110.724C139.075 110.498 139.361 110.385 139.693 110.385C140.026 110.385 140.309 110.498 140.544 110.724C140.782 110.945 140.901 111.214 140.901 111.529C140.901 111.84 140.782 112.109 140.544 112.335C140.309 112.556 140.026 112.667 139.693 112.667ZM151.61 114.182L148.049 124H146.004L142.437 114.182H144.489L146.975 121.737H147.078L149.558 114.182H151.61ZM157.303 124.198C156.336 124.198 155.503 123.991 154.804 123.578C154.11 123.161 153.573 122.575 153.193 121.82C152.818 121.062 152.631 120.173 152.631 119.155C152.631 118.149 152.818 117.263 153.193 116.496C153.573 115.729 154.101 115.13 154.779 114.7C155.46 114.269 156.257 114.054 157.169 114.054C157.723 114.054 158.26 114.146 158.78 114.329C159.3 114.512 159.767 114.8 160.18 115.192C160.593 115.584 160.919 116.093 161.158 116.719C161.396 117.342 161.516 118.098 161.516 118.989V119.666H153.711V118.234H159.643C159.643 117.732 159.541 117.286 159.336 116.898C159.132 116.506 158.844 116.197 158.473 115.972C158.107 115.746 157.676 115.633 157.182 115.633C156.645 115.633 156.176 115.765 155.776 116.029C155.379 116.289 155.073 116.63 154.855 117.052C154.642 117.469 154.536 117.923 154.536 118.413V119.532C154.536 120.188 154.651 120.746 154.881 121.207C155.115 121.667 155.441 122.018 155.859 122.261C156.276 122.5 156.764 122.619 157.323 122.619C157.685 122.619 158.015 122.568 158.313 122.466C158.612 122.359 158.869 122.202 159.087 121.993C159.304 121.784 159.47 121.526 159.585 121.219L161.394 121.545C161.249 122.078 160.99 122.545 160.615 122.945C160.244 123.342 159.777 123.651 159.215 123.872C158.656 124.089 158.019 124.198 157.303 124.198ZM163.636 124V114.182H165.484V115.741H165.586C165.765 115.213 166.08 114.798 166.532 114.495C166.988 114.188 167.504 114.035 168.079 114.035C168.198 114.035 168.339 114.039 168.501 114.048C168.667 114.056 168.797 114.067 168.891 114.08V115.908C168.814 115.886 168.678 115.863 168.482 115.837C168.286 115.808 168.089 115.793 167.893 115.793C167.442 115.793 167.039 115.888 166.685 116.08C166.336 116.268 166.059 116.53 165.854 116.866C165.65 117.199 165.548 117.578 165.548 118.004V124H163.636ZM174.425 124.198C173.457 124.198 172.624 123.991 171.925 123.578C171.231 123.161 170.694 122.575 170.314 121.82C169.939 121.062 169.752 120.173 169.752 119.155C169.752 118.149 169.939 117.263 170.314 116.496C170.694 115.729 171.222 115.13 171.9 114.7C172.581 114.269 173.378 114.054 174.29 114.054C174.844 114.054 175.381 114.146 175.901 114.329C176.421 114.512 176.888 114.8 177.301 115.192C177.714 115.584 178.04 116.093 178.279 116.719C178.518 117.342 178.637 118.098 178.637 118.989V119.666H170.832V118.234H176.764C176.764 117.732 176.662 117.286 176.457 116.898C176.253 116.506 175.965 116.197 175.594 115.972C175.228 115.746 174.797 115.633 174.303 115.633C173.766 115.633 173.297 115.765 172.897 116.029C172.501 116.289 172.194 116.63 171.976 117.052C171.763 117.469 171.657 117.923 171.657 118.413V119.532C171.657 120.188 171.772 120.746 172.002 121.207C172.236 121.667 172.562 122.018 172.98 122.261C173.398 122.5 173.885 122.619 174.444 122.619C174.806 122.619 175.136 122.568 175.434 122.466C175.733 122.359 175.991 122.202 176.208 121.993C176.425 121.784 176.591 121.526 176.706 121.219L178.515 121.545C178.371 122.078 178.111 122.545 177.736 122.945C177.365 123.342 176.898 123.651 176.336 123.872C175.778 124.089 175.14 124.198 174.425 124.198ZM184.433 124.192C183.64 124.192 182.933 123.989 182.311 123.585C181.693 123.175 181.207 122.594 180.853 121.839C180.504 121.081 180.329 120.171 180.329 119.11C180.329 118.049 180.506 117.141 180.86 116.387C181.218 115.633 181.708 115.055 182.33 114.655C182.952 114.254 183.657 114.054 184.446 114.054C185.055 114.054 185.545 114.156 185.916 114.361C186.291 114.561 186.581 114.795 186.785 115.064C186.994 115.332 187.156 115.569 187.271 115.773H187.386V110.909H189.297V124H187.431V122.472H187.271C187.156 122.681 186.99 122.92 186.772 123.188C186.559 123.457 186.265 123.691 185.89 123.891C185.515 124.092 185.029 124.192 184.433 124.192ZM184.855 122.562C185.404 122.562 185.869 122.417 186.248 122.127C186.632 121.833 186.922 121.426 187.118 120.906C187.318 120.386 187.418 119.781 187.418 119.091C187.418 118.409 187.32 117.812 187.124 117.301C186.928 116.79 186.64 116.391 186.261 116.106C185.882 115.82 185.413 115.678 184.855 115.678C184.279 115.678 183.8 115.827 183.417 116.125C183.033 116.423 182.743 116.83 182.547 117.346C182.355 117.862 182.26 118.443 182.26 119.091C182.26 119.747 182.358 120.337 182.554 120.862C182.75 121.386 183.039 121.801 183.423 122.108C183.811 122.411 184.288 122.562 184.855 122.562Z" fill="#6A39FF"/>
<circle cx="40.5" cy="175.5" r="4.5" fill="#6A39FF"/>
<path d="M53.2159 170.897V168.909H63.6605V170.897H59.6143V182H57.2621V170.897H53.2159ZM64.5522 182V172.182H66.7958V173.818H66.8981C67.0771 173.251 67.3839 172.815 67.8185 172.508C68.2575 172.197 68.7582 172.041 69.3207 172.041C69.4485 172.041 69.5913 172.048 69.7489 172.06C69.9109 172.069 70.0451 172.084 70.1516 172.105V174.234C70.0536 174.2 69.8981 174.17 69.685 174.144C69.4762 174.114 69.2738 174.099 69.0778 174.099C68.6559 174.099 68.2766 174.191 67.94 174.374C67.6076 174.553 67.3455 174.803 67.1538 175.122C66.962 175.442 66.8661 175.81 66.8661 176.228V182H64.5522ZM71.6889 182V172.182H74.0028V182H71.6889ZM72.8523 170.788C72.4858 170.788 72.1705 170.667 71.9062 170.424C71.642 170.177 71.5099 169.881 71.5099 169.536C71.5099 169.186 71.642 168.89 71.9062 168.647C72.1705 168.4 72.4858 168.276 72.8523 168.276C73.223 168.276 73.5384 168.4 73.7983 168.647C74.0625 168.89 74.1946 169.186 74.1946 169.536C74.1946 169.881 74.0625 170.177 73.7983 170.424C73.5384 170.667 73.223 170.788 72.8523 170.788ZM80.665 182.192C79.7061 182.192 78.8752 181.981 78.1721 181.559C77.4689 181.137 76.9235 180.547 76.5357 179.788C76.1522 179.03 75.9604 178.143 75.9604 177.129C75.9604 176.115 76.1522 175.227 76.5357 174.464C76.9235 173.701 77.4689 173.109 78.1721 172.687C78.8752 172.265 79.7061 172.054 80.665 172.054C81.6238 172.054 82.4547 172.265 83.1578 172.687C83.861 173.109 84.4043 173.701 84.7878 174.464C85.1756 175.227 85.3695 176.115 85.3695 177.129C85.3695 178.143 85.1756 179.03 84.7878 179.788C84.4043 180.547 83.861 181.137 83.1578 181.559C82.4547 181.981 81.6238 182.192 80.665 182.192ZM80.6777 180.338C81.1976 180.338 81.6323 180.195 81.9817 179.91C82.3311 179.62 82.5911 179.232 82.7615 178.746C82.9363 178.261 83.0236 177.719 83.0236 177.123C83.0236 176.522 82.9363 175.979 82.7615 175.493C82.5911 175.003 82.3311 174.613 81.9817 174.323C81.6323 174.033 81.1976 173.888 80.6777 173.888C80.1451 173.888 79.7019 174.033 79.3482 174.323C78.9988 174.613 78.7367 175.003 78.562 175.493C78.3915 175.979 78.3063 176.522 78.3063 177.123C78.3063 177.719 78.3915 178.261 78.562 178.746C78.7367 179.232 78.9988 179.62 79.3482 179.91C79.7019 180.195 80.1451 180.338 80.6777 180.338ZM94.5501 172.508C94.4904 171.95 94.239 171.515 93.7958 171.204C93.3569 170.893 92.7859 170.737 92.0827 170.737C91.5884 170.737 91.1644 170.812 90.8107 170.961C90.457 171.11 90.1864 171.312 89.9989 171.568C89.8114 171.824 89.7156 172.116 89.7113 172.444C89.7113 172.717 89.7731 172.953 89.8967 173.153C90.0245 173.354 90.1971 173.524 90.4144 173.665C90.6317 173.801 90.8725 173.916 91.1367 174.01C91.4009 174.104 91.6673 174.183 91.9357 174.246L93.163 174.553C93.6573 174.668 94.1325 174.824 94.5884 175.02C95.0487 175.216 95.4599 175.463 95.8221 175.761C96.1886 176.06 96.4783 176.42 96.6914 176.842C96.9045 177.263 97.011 177.758 97.011 178.325C97.011 179.092 96.815 179.767 96.4229 180.351C96.0309 180.93 95.4641 181.384 94.7227 181.712C93.9854 182.036 93.0927 182.198 92.0444 182.198C91.0259 182.198 90.1417 182.04 89.3917 181.725C88.646 181.41 88.0621 180.95 87.6403 180.344C87.2227 179.739 86.9968 179.002 86.9627 178.133H89.2958C89.3299 178.589 89.4705 178.968 89.7177 179.271C89.9648 179.573 90.2866 179.799 90.6829 179.948C91.0835 180.097 91.5309 180.172 92.0252 180.172C92.5408 180.172 92.9925 180.095 93.3803 179.942C93.7724 179.784 94.0792 179.567 94.3008 179.29C94.5224 179.009 94.6353 178.68 94.6396 178.305C94.6353 177.964 94.5352 177.683 94.3391 177.462C94.1431 177.236 93.8683 177.048 93.5146 176.899C93.1651 176.746 92.756 176.609 92.2873 176.49L90.7979 176.107C89.7198 175.83 88.8675 175.41 88.2411 174.847C87.619 174.281 87.3079 173.528 87.3079 172.591C87.3079 171.82 87.5167 171.144 87.9343 170.565C88.3562 169.985 88.9293 169.536 89.6538 169.216C90.3782 168.892 91.1985 168.73 92.1147 168.73C93.0437 168.73 93.8576 168.892 94.5565 169.216C95.2596 169.536 95.8114 169.981 96.212 170.552C96.6126 171.119 96.8192 171.771 96.832 172.508H94.5501ZM99.0229 185.682V172.182H101.298V173.805H101.433C101.552 173.567 101.72 173.313 101.938 173.045C102.155 172.772 102.449 172.54 102.82 172.348C103.191 172.152 103.664 172.054 104.239 172.054C104.997 172.054 105.681 172.248 106.291 172.636C106.904 173.019 107.39 173.588 107.748 174.342C108.11 175.092 108.291 176.013 108.291 177.104C108.291 178.182 108.115 179.098 107.761 179.852C107.407 180.607 106.926 181.182 106.316 181.578C105.707 181.974 105.017 182.173 104.245 182.173C103.683 182.173 103.216 182.079 102.845 181.891C102.475 181.704 102.176 181.478 101.95 181.214C101.729 180.945 101.556 180.692 101.433 180.453H101.337V185.682H99.0229ZM101.292 177.091C101.292 177.726 101.382 178.282 101.561 178.759C101.744 179.237 102.006 179.609 102.347 179.878C102.692 180.142 103.11 180.274 103.6 180.274C104.111 180.274 104.539 180.138 104.884 179.865C105.23 179.588 105.49 179.211 105.664 178.734C105.843 178.252 105.933 177.705 105.933 177.091C105.933 176.482 105.845 175.94 105.671 175.467C105.496 174.994 105.236 174.624 104.891 174.355C104.546 174.087 104.115 173.952 103.6 173.952C103.105 173.952 102.686 174.082 102.34 174.342C101.995 174.602 101.733 174.967 101.554 175.435C101.379 175.904 101.292 176.456 101.292 177.091ZM110.273 182V172.182H112.587V182H110.273ZM111.436 170.788C111.07 170.788 110.754 170.667 110.49 170.424C110.226 170.177 110.094 169.881 110.094 169.536C110.094 169.186 110.226 168.89 110.49 168.647C110.754 168.4 111.07 168.276 111.436 168.276C111.807 168.276 112.122 168.4 112.382 168.647C112.646 168.89 112.779 169.186 112.779 169.536C112.779 169.881 112.646 170.177 112.382 170.424C112.122 170.667 111.807 170.788 111.436 170.788ZM114.966 182V172.182H117.21V173.818H117.312C117.491 173.251 117.798 172.815 118.233 172.508C118.672 172.197 119.172 172.041 119.735 172.041C119.863 172.041 120.005 172.048 120.163 172.06C120.325 172.069 120.459 172.084 120.566 172.105V174.234C120.468 174.2 120.312 174.17 120.099 174.144C119.89 174.114 119.688 174.099 119.492 174.099C119.07 174.099 118.691 174.191 118.354 174.374C118.022 174.553 117.76 174.803 117.568 175.122C117.376 175.442 117.28 175.81 117.28 176.228V182H114.966ZM126.045 182.192C125.061 182.192 124.211 181.987 123.495 181.578C122.783 181.165 122.236 180.581 121.852 179.827C121.469 179.068 121.277 178.175 121.277 177.148C121.277 176.138 121.469 175.252 121.852 174.489C122.24 173.722 122.781 173.126 123.476 172.7C124.17 172.269 124.986 172.054 125.924 172.054C126.529 172.054 127.1 172.152 127.637 172.348C128.178 172.54 128.655 172.838 129.069 173.243C129.486 173.648 129.814 174.163 130.053 174.79C130.292 175.412 130.411 176.153 130.411 177.014V177.724H122.363V176.164H128.193C128.189 175.721 128.093 175.327 127.905 174.982C127.718 174.632 127.456 174.357 127.119 174.157C126.787 173.957 126.399 173.857 125.956 173.857C125.483 173.857 125.067 173.972 124.709 174.202C124.351 174.428 124.072 174.726 123.872 175.097C123.676 175.463 123.576 175.866 123.572 176.305V177.666C123.572 178.237 123.676 178.727 123.885 179.136C124.094 179.541 124.385 179.852 124.76 180.07C125.135 180.283 125.574 180.389 126.077 180.389C126.414 180.389 126.719 180.342 126.991 180.249C127.264 180.151 127.501 180.008 127.701 179.82C127.901 179.633 128.052 179.401 128.155 179.124L130.315 179.366C130.179 179.937 129.919 180.436 129.535 180.862C129.156 181.284 128.67 181.612 128.078 181.847C127.486 182.077 126.808 182.192 126.045 182.192Z" fill="#274259"/>
<line opacity="0.1" x1="306.75" y1="37" x2="306.75" y2="187" stroke="#222222" stroke-width="1.5"/>
<line opacity="0.1" x1="336.75" y1="37" x2="336.75" y2="187" stroke="#222222" stroke-width="1.5"/>
<line opacity="0.1" x1="366.75" y1="37" x2="366.75" y2="187" stroke="#222222" stroke-width="1.5"/>
<line opacity="0.1" x1="396.75" y1="37" x2="396.75" y2="187" stroke="#222222" stroke-width="1.5"/>
<line opacity="0.1" x1="426.75" y1="37" x2="426.75" y2="187" stroke="#222222" stroke-width="1.5"/>
<line opacity="0.1" x1="456.75" y1="37" x2="456.75" y2="187" stroke="#222222" stroke-width="1.5"/>
<line opacity="0.1" x1="486.75" y1="37" x2="486.75" y2="187" stroke="#222222" stroke-width="1.5"/>
<path d="M306.75 152.5L335.229 133.277C336.22 132.608 337.389 132.25 338.585 132.25H364.859C366.09 132.25 367.291 131.871 368.299 131.165L395.201 112.335C396.209 111.629 397.41 111.25 398.641 111.25H424.594C425.988 111.25 427.338 110.765 428.413 109.878L453.674 89.0379C455.538 87.5003 458.142 87.2307 460.281 88.3538L486.75 102.25" stroke="#6A39FF" stroke-width="3" stroke-linecap="round"/>
<circle cx="337.5" cy="133" r="4.5" fill="white" stroke="#6A39FF" stroke-width="3"/>
<circle cx="307.5" cy="152.5" r="4.5" fill="white" stroke="#6A39FF" stroke-width="3"/>
<circle cx="367.5" cy="133" r="4.5" fill="white" stroke="#6A39FF" stroke-width="3"/>
<circle cx="396" cy="112" r="4.5" fill="white" stroke="#6A39FF" stroke-width="3"/>
<circle cx="427.5" cy="112" r="4.5" fill="white" stroke="#6A39FF" stroke-width="3"/>
<circle cx="456" cy="88" r="4.5" fill="white" stroke="#6A39FF" stroke-width="3"/>
<circle cx="487.5" cy="101.5" r="4.5" fill="white" stroke="#6A39FF" stroke-width="3"/>
<rect x="297" y="38.5" width="221" height="36.5" rx="18.25" fill="#6A39FF"/>
<path d="M317.352 63.6641C316.481 63.6641 315.708 63.5176 315.032 63.2246C314.36 62.9316 313.833 62.5312 313.45 62.0234C313.071 61.5117 312.883 60.9316 312.887 60.2832C312.883 59.7793 312.993 59.3164 313.215 58.8945C313.438 58.4727 313.739 58.1211 314.118 57.8398C314.501 57.5547 314.926 57.373 315.395 57.2949V57.2129C314.778 57.0762 314.278 56.7617 313.895 56.2695C313.516 55.7734 313.329 55.2012 313.333 54.5527C313.329 53.9355 313.501 53.3848 313.848 52.9004C314.196 52.416 314.672 52.0352 315.278 51.7578C315.883 51.4766 316.575 51.3359 317.352 51.3359C318.122 51.3359 318.807 51.4766 319.409 51.7578C320.014 52.0352 320.491 52.416 320.838 52.9004C321.19 53.3848 321.366 53.9355 321.366 54.5527C321.366 55.2012 321.172 55.7734 320.786 56.2695C320.403 56.7617 319.909 57.0762 319.303 57.2129V57.2949C319.772 57.373 320.194 57.5547 320.569 57.8398C320.948 58.1211 321.249 58.4727 321.471 58.8945C321.698 59.3164 321.811 59.7793 321.811 60.2832C321.811 60.9316 321.62 61.5117 321.237 62.0234C320.854 62.5312 320.327 62.9316 319.655 63.2246C318.987 63.5176 318.219 63.6641 317.352 63.6641ZM317.352 61.9883C317.801 61.9883 318.192 61.9121 318.524 61.7598C318.856 61.6035 319.114 61.3848 319.297 61.1035C319.481 60.8223 319.575 60.498 319.579 60.1309C319.575 59.748 319.475 59.4102 319.28 59.1172C319.088 58.8203 318.825 58.5879 318.489 58.4199C318.157 58.252 317.778 58.168 317.352 58.168C316.922 58.168 316.54 58.252 316.204 58.4199C315.868 58.5879 315.602 58.8203 315.407 59.1172C315.215 59.4102 315.122 59.748 315.126 60.1309C315.122 60.498 315.212 60.8223 315.395 61.1035C315.579 61.3809 315.837 61.5977 316.169 61.7539C316.504 61.9102 316.899 61.9883 317.352 61.9883ZM317.352 56.5215C317.719 56.5215 318.044 56.4473 318.325 56.2988C318.61 56.1504 318.835 55.9434 318.999 55.6777C319.163 55.4121 319.247 55.1055 319.251 54.7578C319.247 54.4141 319.165 54.1133 319.004 53.8555C318.844 53.5937 318.622 53.3926 318.337 53.252C318.051 53.1074 317.723 53.0352 317.352 53.0352C316.973 53.0352 316.639 53.1074 316.35 53.252C316.065 53.3926 315.842 53.5937 315.682 53.8555C315.526 54.1133 315.45 54.4141 315.454 54.7578C315.45 55.1055 315.528 55.4121 315.688 55.6777C315.852 55.9395 316.077 56.1465 316.362 56.2988C316.651 56.4473 316.981 56.5215 317.352 56.5215ZM327.63 61.5781V53.4687H329.47V61.5781H327.63ZM324.495 58.4434V56.6035H332.605V58.4434H324.495ZM339.219 51.5H341.674L344.61 56.8086H344.727L347.662 51.5H350.118L345.752 59.0234V63.5H343.584V59.0234L339.219 51.5ZM354.202 63.6758C353.3 63.6758 352.52 63.4883 351.864 63.1133C351.212 62.7344 350.71 62.1992 350.358 61.5078C350.007 60.8125 349.831 59.9941 349.831 59.0527C349.831 58.127 350.007 57.3145 350.358 56.6152C350.714 55.9121 351.21 55.3652 351.846 54.9746C352.483 54.5801 353.231 54.3828 354.091 54.3828C354.645 54.3828 355.169 54.4727 355.661 54.6523C356.157 54.8281 356.595 55.1016 356.973 55.4727C357.356 55.8437 357.657 56.3164 357.876 56.8906C358.095 57.4609 358.204 58.1406 358.204 58.9297V59.5801H350.827V58.1504H356.171C356.167 57.7441 356.079 57.3828 355.907 57.0664C355.735 56.7461 355.495 56.4941 355.186 56.3105C354.882 56.127 354.526 56.0352 354.12 56.0352C353.686 56.0352 353.305 56.1406 352.977 56.3516C352.649 56.5586 352.393 56.832 352.21 57.1719C352.03 57.5078 351.938 57.877 351.934 58.2793V59.5273C351.934 60.0508 352.03 60.5 352.221 60.875C352.413 61.2461 352.68 61.5312 353.024 61.7305C353.368 61.9258 353.77 62.0234 354.231 62.0234C354.54 62.0234 354.819 61.9805 355.069 61.8945C355.319 61.8047 355.536 61.6738 355.72 61.502C355.903 61.3301 356.042 61.1172 356.136 60.8633L358.116 61.0859C357.991 61.6094 357.753 62.0664 357.401 62.457C357.053 62.8437 356.608 63.1445 356.065 63.3594C355.522 63.5703 354.901 63.6758 354.202 63.6758ZM362.918 63.6816C362.348 63.6816 361.834 63.5801 361.377 63.377C360.924 63.1699 360.565 62.8652 360.299 62.4629C360.037 62.0605 359.906 61.5645 359.906 60.9746C359.906 60.4668 360 60.0469 360.188 59.7148C360.375 59.3828 360.631 59.1172 360.955 58.918C361.279 58.7187 361.645 58.5684 362.051 58.4668C362.461 58.3613 362.885 58.2852 363.322 58.2383C363.85 58.1836 364.278 58.1348 364.606 58.0918C364.934 58.0449 365.172 57.9746 365.321 57.8809C365.473 57.7832 365.549 57.6328 365.549 57.4297V57.3945C365.549 56.9531 365.418 56.6113 365.156 56.3691C364.895 56.127 364.518 56.0059 364.026 56.0059C363.506 56.0059 363.094 56.1191 362.789 56.3457C362.488 56.5723 362.285 56.8398 362.18 57.1484L360.199 56.8672C360.356 56.3203 360.613 55.8633 360.973 55.4961C361.332 55.125 361.772 54.8477 362.291 54.6641C362.811 54.4766 363.385 54.3828 364.014 54.3828C364.447 54.3828 364.879 54.4336 365.309 54.5352C365.738 54.6367 366.131 54.8047 366.487 55.0391C366.842 55.2695 367.127 55.584 367.342 55.9824C367.561 56.3809 367.67 56.8789 367.67 57.4766V63.5H365.631V62.2637H365.561C365.432 62.5137 365.25 62.748 365.016 62.9668C364.785 63.1816 364.494 63.3555 364.143 63.4883C363.795 63.6172 363.387 63.6816 362.918 63.6816ZM363.469 62.123C363.895 62.123 364.264 62.0391 364.576 61.8711C364.889 61.6992 365.129 61.4727 365.297 61.1914C365.469 60.9102 365.555 60.6035 365.555 60.2715V59.2109C365.488 59.2656 365.375 59.3164 365.215 59.3633C365.059 59.4102 364.883 59.4512 364.688 59.4863C364.492 59.5215 364.299 59.5527 364.108 59.5801C363.916 59.6074 363.75 59.6309 363.61 59.6504C363.293 59.6934 363.01 59.7637 362.76 59.8613C362.51 59.959 362.313 60.0957 362.168 60.2715C362.024 60.4434 361.951 60.666 361.951 60.9395C361.951 61.3301 362.094 61.625 362.379 61.8242C362.664 62.0234 363.028 62.123 363.469 62.123ZM370.133 63.5V54.5H372.19V56H372.283C372.447 55.4805 372.729 55.0801 373.127 54.7988C373.529 54.5137 373.988 54.3711 374.504 54.3711C374.621 54.3711 374.752 54.377 374.897 54.3887C375.045 54.3965 375.168 54.4102 375.266 54.4297V56.3809C375.176 56.3496 375.033 56.3223 374.838 56.2988C374.647 56.2715 374.461 56.2578 374.281 56.2578C373.895 56.2578 373.547 56.3418 373.238 56.5098C372.934 56.6738 372.693 56.9023 372.518 57.1953C372.342 57.4883 372.254 57.8262 372.254 58.209V63.5H370.133ZM384.118 56.8789L382.185 57.0898C382.13 56.8945 382.034 56.7109 381.897 56.5391C381.765 56.3672 381.585 56.2285 381.358 56.123C381.132 56.0176 380.855 55.9648 380.526 55.9648C380.085 55.9648 379.714 56.0605 379.413 56.252C379.116 56.4434 378.97 56.6914 378.974 56.9961C378.97 57.2578 379.065 57.4707 379.261 57.6348C379.46 57.7988 379.788 57.9336 380.245 58.0391L381.78 58.3672C382.632 58.5508 383.265 58.8418 383.679 59.2402C384.097 59.6387 384.308 60.1602 384.312 60.8047C384.308 61.3711 384.142 61.8711 383.814 62.3047C383.489 62.7344 383.038 63.0703 382.46 63.3125C381.882 63.5547 381.218 63.6758 380.468 63.6758C379.366 63.6758 378.48 63.4453 377.808 62.9844C377.136 62.5195 376.735 61.873 376.606 61.0449L378.675 60.8457C378.769 61.252 378.968 61.5586 379.272 61.7656C379.577 61.9727 379.974 62.0762 380.462 62.0762C380.966 62.0762 381.37 61.9727 381.675 61.7656C381.983 61.5586 382.138 61.3027 382.138 60.998C382.138 60.7402 382.038 60.5273 381.839 60.3594C381.644 60.1914 381.339 60.0625 380.925 59.9727L379.39 59.6504C378.526 59.4707 377.888 59.168 377.474 58.7422C377.06 58.3125 376.855 57.7695 376.858 57.1133C376.855 56.5586 377.005 56.0781 377.31 55.6719C377.618 55.2617 378.046 54.9453 378.593 54.7227C379.144 54.4961 379.778 54.3828 380.497 54.3828C381.552 54.3828 382.382 54.6074 382.987 55.0566C383.597 55.5059 383.974 56.1133 384.118 56.8789ZM394.739 63.6758C393.86 63.6758 393.099 63.4824 392.454 63.0957C391.809 62.709 391.309 62.168 390.954 61.4727C390.602 60.7773 390.427 59.9648 390.427 59.0352C390.427 58.1055 390.602 57.291 390.954 56.5918C391.309 55.8926 391.809 55.3496 392.454 54.9629C393.099 54.5762 393.86 54.3828 394.739 54.3828C395.618 54.3828 396.38 54.5762 397.024 54.9629C397.669 55.3496 398.167 55.8926 398.518 56.5918C398.874 57.291 399.052 58.1055 399.052 59.0352C399.052 59.9648 398.874 60.7773 398.518 61.4727C398.167 62.168 397.669 62.709 397.024 63.0957C396.38 63.4824 395.618 63.6758 394.739 63.6758ZM394.751 61.9766C395.227 61.9766 395.626 61.8457 395.946 61.584C396.266 61.3184 396.505 60.9629 396.661 60.5176C396.821 60.0723 396.901 59.5762 396.901 59.0293C396.901 58.4785 396.821 57.9805 396.661 57.5352C396.505 57.0859 396.266 56.7285 395.946 56.4629C395.626 56.1973 395.227 56.0645 394.751 56.0645C394.263 56.0645 393.856 56.1973 393.532 56.4629C393.212 56.7285 392.972 57.0859 392.811 57.5352C392.655 57.9805 392.577 58.4785 392.577 59.0293C392.577 59.5762 392.655 60.0723 392.811 60.5176C392.972 60.9629 393.212 61.3184 393.532 61.584C393.856 61.8457 394.263 61.9766 394.751 61.9766ZM405.741 54.5V56.1406H400.42V54.5H405.741ZM401.75 63.5V53.6504C401.75 53.0449 401.875 52.541 402.125 52.1387C402.379 51.7363 402.719 51.4355 403.145 51.2363C403.571 51.0371 404.043 50.9375 404.563 50.9375C404.93 50.9375 405.256 50.9668 405.541 51.0254C405.826 51.084 406.037 51.1367 406.174 51.1836L405.752 52.8242C405.662 52.7969 405.549 52.7695 405.412 52.7422C405.276 52.7109 405.123 52.6953 404.955 52.6953C404.561 52.6953 404.282 52.791 404.117 52.9824C403.957 53.1699 403.877 53.4395 403.877 53.791V63.5H401.75ZM416.139 63.6758C415.236 63.6758 414.457 63.4883 413.801 63.1133C413.149 62.7344 412.647 62.1992 412.295 61.5078C411.943 60.8125 411.768 59.9941 411.768 59.0527C411.768 58.127 411.943 57.3145 412.295 56.6152C412.651 55.9121 413.147 55.3652 413.783 54.9746C414.42 54.5801 415.168 54.3828 416.027 54.3828C416.582 54.3828 417.106 54.4727 417.598 54.6523C418.094 54.8281 418.531 55.1016 418.91 55.4727C419.293 55.8437 419.594 56.3164 419.813 56.8906C420.031 57.4609 420.141 58.1406 420.141 58.9297V59.5801H412.764V58.1504H418.108C418.104 57.7441 418.016 57.3828 417.844 57.0664C417.672 56.7461 417.432 56.4941 417.123 56.3105C416.818 56.127 416.463 56.0352 416.057 56.0352C415.623 56.0352 415.242 56.1406 414.914 56.3516C414.586 56.5586 414.33 56.832 414.147 57.1719C413.967 57.5078 413.875 57.877 413.871 58.2793V59.5273C413.871 60.0508 413.967 60.5 414.158 60.875C414.35 61.2461 414.617 61.5312 414.961 61.7305C415.305 61.9258 415.707 62.0234 416.168 62.0234C416.477 62.0234 416.756 61.9805 417.006 61.8945C417.256 61.8047 417.473 61.6738 417.656 61.502C417.84 61.3301 417.979 61.1172 418.072 60.8633L420.053 61.0859C419.928 61.6094 419.69 62.0664 419.338 62.457C418.99 62.8437 418.545 63.1445 418.002 63.3594C417.459 63.5703 416.838 63.6758 416.139 63.6758ZM423.806 54.5L425.623 57.8223L427.468 54.5H429.712L427 59L429.759 63.5H427.527L425.623 60.2598L423.736 63.5H421.486L424.228 59L421.556 54.5H423.806ZM431.683 66.875V54.5H433.769V55.9883H433.892C434.001 55.7695 434.156 55.5371 434.355 55.291C434.554 55.041 434.824 54.8281 435.164 54.6523C435.503 54.4727 435.937 54.3828 436.464 54.3828C437.16 54.3828 437.787 54.5605 438.345 54.916C438.908 55.2676 439.353 55.7891 439.681 56.4805C440.013 57.168 440.179 58.0117 440.179 59.0117C440.179 60 440.017 60.8398 439.693 61.5312C439.369 62.2227 438.927 62.75 438.369 63.1133C437.81 63.4766 437.177 63.6582 436.47 63.6582C435.955 63.6582 435.527 63.5723 435.187 63.4004C434.847 63.2285 434.574 63.0215 434.367 62.7793C434.164 62.5332 434.005 62.3008 433.892 62.082H433.804V66.875H431.683ZM433.763 59C433.763 59.582 433.845 60.0918 434.009 60.5293C434.177 60.9668 434.417 61.3086 434.73 61.5547C435.046 61.7969 435.429 61.918 435.878 61.918C436.347 61.918 436.74 61.793 437.056 61.543C437.373 61.2891 437.611 60.9434 437.771 60.5059C437.935 60.0645 438.017 59.5625 438.017 59C438.017 58.4414 437.937 57.9453 437.777 57.5117C437.617 57.0781 437.378 56.7383 437.062 56.4922C436.746 56.2461 436.351 56.123 435.878 56.123C435.425 56.123 435.041 56.2422 434.724 56.4805C434.408 56.7187 434.167 57.0527 434.003 57.4824C433.843 57.9121 433.763 58.418 433.763 59ZM446.31 63.6758C445.408 63.6758 444.628 63.4883 443.972 63.1133C443.32 62.7344 442.818 62.1992 442.466 61.5078C442.115 60.8125 441.939 59.9941 441.939 59.0527C441.939 58.127 442.115 57.3145 442.466 56.6152C442.822 55.9121 443.318 55.3652 443.954 54.9746C444.591 54.5801 445.339 54.3828 446.199 54.3828C446.753 54.3828 447.277 54.4727 447.769 54.6523C448.265 54.8281 448.703 55.1016 449.081 55.4727C449.464 55.8437 449.765 56.3164 449.984 56.8906C450.203 57.4609 450.312 58.1406 450.312 58.9297V59.5801H442.935V58.1504H448.279C448.275 57.7441 448.187 57.3828 448.015 57.0664C447.843 56.7461 447.603 56.4941 447.294 56.3105C446.99 56.127 446.634 56.0352 446.228 56.0352C445.794 56.0352 445.413 56.1406 445.085 56.3516C444.757 56.5586 444.501 56.832 444.318 57.1719C444.138 57.5078 444.046 57.877 444.042 58.2793V59.5273C444.042 60.0508 444.138 60.5 444.329 60.875C444.521 61.2461 444.788 61.5312 445.132 61.7305C445.476 61.9258 445.878 62.0234 446.339 62.0234C446.648 62.0234 446.927 61.9805 447.177 61.8945C447.427 61.8047 447.644 61.6738 447.828 61.502C448.011 61.3301 448.15 61.1172 448.244 60.8633L450.224 61.0859C450.099 61.6094 449.861 62.0664 449.509 62.457C449.162 62.8437 448.716 63.1445 448.173 63.3594C447.63 63.5703 447.009 63.6758 446.31 63.6758ZM452.436 63.5V54.5H454.493V56H454.587C454.751 55.4805 455.032 55.0801 455.43 54.7988C455.833 54.5137 456.292 54.3711 456.807 54.3711C456.925 54.3711 457.055 54.377 457.2 54.3887C457.348 54.3965 457.471 54.4102 457.569 54.4297V56.3809C457.479 56.3496 457.337 56.3223 457.141 56.2988C456.95 56.2715 456.764 56.2578 456.585 56.2578C456.198 56.2578 455.85 56.3418 455.542 56.5098C455.237 56.6738 454.997 56.9023 454.821 57.1953C454.645 57.4883 454.557 57.8262 454.557 58.209V63.5H452.436ZM459.308 63.5V54.5H461.429V63.5H459.308ZM460.375 53.2227C460.039 53.2227 459.75 53.1113 459.508 52.8887C459.265 52.6621 459.144 52.3906 459.144 52.0742C459.144 51.7539 459.265 51.4824 459.508 51.2598C459.75 51.0332 460.039 50.9199 460.375 50.9199C460.715 50.9199 461.004 51.0332 461.242 51.2598C461.484 51.4824 461.605 51.7539 461.605 52.0742C461.605 52.3906 461.484 52.6621 461.242 52.8887C461.004 53.1113 460.715 53.2227 460.375 53.2227ZM467.925 63.6758C467.023 63.6758 466.243 63.4883 465.587 63.1133C464.935 62.7344 464.433 62.1992 464.081 61.5078C463.73 60.8125 463.554 59.9941 463.554 59.0527C463.554 58.127 463.73 57.3145 464.081 56.6152C464.437 55.9121 464.933 55.3652 465.569 54.9746C466.206 54.5801 466.954 54.3828 467.814 54.3828C468.368 54.3828 468.892 54.4727 469.384 54.6523C469.88 54.8281 470.318 55.1016 470.696 55.4727C471.079 55.8437 471.38 56.3164 471.599 56.8906C471.818 57.4609 471.927 58.1406 471.927 58.9297V59.5801H464.55V58.1504H469.894C469.89 57.7441 469.802 57.3828 469.63 57.0664C469.458 56.7461 469.218 56.4941 468.909 56.3105C468.605 56.127 468.249 56.0352 467.843 56.0352C467.409 56.0352 467.028 56.1406 466.7 56.3516C466.372 56.5586 466.116 56.832 465.933 57.1719C465.753 57.5078 465.661 57.877 465.657 58.2793V59.5273C465.657 60.0508 465.753 60.5 465.944 60.875C466.136 61.2461 466.403 61.5312 466.747 61.7305C467.091 61.9258 467.493 62.0234 467.954 62.0234C468.263 62.0234 468.542 61.9805 468.792 61.8945C469.042 61.8047 469.259 61.6738 469.443 61.502C469.626 61.3301 469.765 61.1172 469.859 60.8633L471.839 61.0859C471.714 61.6094 471.476 62.0664 471.124 62.457C470.777 62.8437 470.331 63.1445 469.788 63.3594C469.245 63.5703 468.624 63.6758 467.925 63.6758ZM476.172 58.2266V63.5H474.051V54.5H476.079V56.0293H476.184C476.391 55.5254 476.721 55.125 477.174 54.8281C477.631 54.5313 478.196 54.3828 478.868 54.3828C479.489 54.3828 480.03 54.5156 480.491 54.7812C480.956 55.0469 481.315 55.4316 481.569 55.9355C481.827 56.4395 481.954 57.0508 481.95 57.7695V63.5H479.829V58.0977C479.829 57.4961 479.672 57.0254 479.36 56.6855C479.051 56.3457 478.624 56.1758 478.077 56.1758C477.706 56.1758 477.376 56.2578 477.087 56.4219C476.801 56.582 476.577 56.8145 476.413 57.1191C476.253 57.4238 476.172 57.793 476.172 58.2266ZM488.362 63.6758C487.463 63.6758 486.692 63.4785 486.047 63.084C485.407 62.6895 484.913 62.1445 484.565 61.4492C484.221 60.75 484.049 59.9453 484.049 59.0352C484.049 58.1211 484.225 57.3145 484.577 56.6152C484.928 55.9121 485.424 55.3652 486.065 54.9746C486.709 54.5801 487.471 54.3828 488.35 54.3828C489.081 54.3828 489.727 54.5176 490.29 54.7871C490.856 55.0527 491.307 55.4297 491.643 55.918C491.979 56.4023 492.17 56.9687 492.217 57.6172H490.19C490.108 57.1836 489.913 56.8223 489.604 56.5332C489.299 56.2402 488.891 56.0937 488.379 56.0937C487.946 56.0937 487.565 56.2109 487.237 56.4453C486.909 56.6758 486.653 57.0078 486.469 57.4414C486.29 57.875 486.2 58.3945 486.2 59C486.2 59.6133 486.29 60.1406 486.469 60.582C486.649 61.0195 486.901 61.3574 487.225 61.5957C487.553 61.8301 487.938 61.9473 488.379 61.9473C488.692 61.9473 488.971 61.8887 489.217 61.7715C489.467 61.6504 489.676 61.4766 489.844 61.25C490.012 61.0234 490.127 60.748 490.19 60.4238H492.217C492.167 61.0605 491.979 61.625 491.655 62.1172C491.331 62.6055 490.889 62.9883 490.331 63.2656C489.772 63.5391 489.116 63.6758 488.362 63.6758ZM498.273 63.6758C497.371 63.6758 496.592 63.4883 495.935 63.1133C495.283 62.7344 494.781 62.1992 494.43 61.5078C494.078 60.8125 493.902 59.9941 493.902 59.0527C493.902 58.127 494.078 57.3145 494.43 56.6152C494.785 55.9121 495.281 55.3652 495.918 54.9746C496.555 54.5801 497.303 54.3828 498.162 54.3828C498.717 54.3828 499.24 54.4727 499.732 54.6523C500.228 54.8281 500.666 55.1016 501.045 55.4727C501.428 55.8437 501.728 56.3164 501.947 56.8906C502.166 57.4609 502.275 58.1406 502.275 58.9297V59.5801H494.898V58.1504H500.242C500.238 57.7441 500.15 57.3828 499.978 57.0664C499.807 56.7461 499.566 56.4941 499.258 56.3105C498.953 56.127 498.598 56.0352 498.191 56.0352C497.758 56.0352 497.377 56.1406 497.049 56.3516C496.721 56.5586 496.465 56.832 496.281 57.1719C496.101 57.5078 496.01 57.877 496.006 58.2793V59.5273C496.006 60.0508 496.101 60.5 496.293 60.875C496.484 61.2461 496.752 61.5312 497.096 61.7305C497.439 61.9258 497.842 62.0234 498.303 62.0234C498.611 62.0234 498.891 61.9805 499.141 61.8945C499.391 61.8047 499.607 61.6738 499.791 61.502C499.975 61.3301 500.113 61.1172 500.207 60.8633L502.187 61.0859C502.062 61.6094 501.824 62.0664 501.473 62.457C501.125 62.8437 500.68 63.1445 500.137 63.3594C499.594 63.5703 498.973 63.6758 498.273 63.6758Z" fill="white"/>
<rect x="36" y="228" width="482" height="90" rx="45" fill="white"/>
<g clip-path="url(#clip0_1794_2543)">
<path d="M84 249C83.4863 249 82.9764 249.016 82.4708 249.048L62.4893 262.344C60.8959 265.555 60 269.173 60 273C60 280.02 63.0136 286.335 67.8177 290.724C67.8177 290.724 75.6393 296.104 84 296.104C95.1867 296.104 106.824 286.255 106.824 273C106.824 257.284 91.8705 250.32 91.8705 250.32C89.405 249.465 86.7567 249 84 249Z" fill="#008CDF"/>
<path d="M107.765 269.629L101.947 268.964C101.947 282.219 91.2014 292.964 77.9466 292.964C74.3266 292.964 70.8955 292.159 67.8176 290.724C69.681 292.426 71.8138 293.839 74.1446 294.89L75.5578 294.811L77.3498 296.066C79.4616 296.674 81.6927 297 84 297C97.2548 297 108 286.255 108 273C108 271.856 107.92 270.73 107.765 269.629Z" fill="#0069D0"/>
<path d="M94.1542 251.247C93.4129 250.901 92.6508 250.591 91.8704 250.32L89.7479 252.187C89.4627 252.431 89.2758 252.77 89.222 253.141C89.1681 253.513 89.251 253.891 89.4551 254.206C89.8662 254.844 90.6973 255.067 91.3967 254.771L91.8263 254.59C92.3538 254.367 92.9718 254.448 93.3995 254.829C94.1553 255.502 94.0236 256.692 93.1755 257.194L88.1909 260.143C87.2174 260.719 86.599 261.767 86.6192 262.898C86.6402 264.073 87.2985 265.03 88.6215 265.151C91.3592 265.404 90.9651 262.503 92.5731 262.503H98.088C98.9275 262.503 99.6554 263.131 99.7282 263.967C99.8111 264.92 99.0621 265.719 98.1265 265.719H91.5134C88.9411 265.719 86.6981 267.701 86.6208 270.272C86.541 272.933 88.6739 275.114 91.3164 275.114H91.9889C93.2716 275.114 94.3115 276.154 94.3115 277.437V285.691C94.3115 285.936 94.3545 286.177 94.4354 286.403L96.3778 286.361L102.425 276.526L103.203 270.889L105.174 268.035C105.174 268.035 101.363 254.617 94.1542 251.247Z" fill="#98DB7C"/>
<path d="M107.765 269.629C106.619 261.469 101.353 254.62 94.1543 251.247C98.938 255.635 101.947 261.962 101.947 268.964C101.947 275.837 99.0652 282.027 94.4356 286.403C94.7194 287.213 95.5242 287.776 96.4594 287.643C97.056 287.558 97.5624 287.156 97.8596 286.632L103.588 276.532C103.839 276.089 104 275.601 104.062 275.096C104.125 274.591 104.087 274.079 103.951 273.588L103.507 271.986C103.361 271.46 103.791 270.952 104.334 271.01L104.65 271.043C105.071 271.088 105.496 271.045 105.899 270.917C106.303 270.79 106.675 270.581 106.994 270.303L107.765 269.629Z" fill="#77CC7D"/>
<path d="M83.776 251.122L82.4708 249.048C73.6924 249.599 66.2003 254.863 62.4894 262.344L64.0018 272.792C64.0855 273.371 64.2994 273.923 64.6272 274.407C64.9551 274.892 65.3884 275.296 65.8947 275.588C66.1804 275.754 66.3986 276.015 66.5105 276.325C66.6223 276.636 66.6208 276.976 66.506 277.286L65.9896 278.679C65.7631 279.29 65.7352 279.957 65.9098 280.585C66.0844 281.213 66.4526 281.769 66.9621 282.176L68.3411 283.276C68.8128 283.652 69.19 284.134 69.4425 284.682L73.0258 292.457L75.1201 293.935L76.599 292.927L76.0627 290.686C75.7602 289.421 75.9222 288.09 76.5193 286.935L78.8451 282.438C79.4857 281.199 78.8977 279.679 77.5901 279.193L75.6793 278.484C75.383 278.374 75.1274 278.176 74.947 277.917C74.7665 277.657 74.6697 277.349 74.6698 277.033V276.884C74.6698 276.028 73.9765 275.335 73.1214 275.335H69.7997C68.9857 275.335 68.186 275.121 67.4807 274.715L66.6704 274.248C66.3667 274.073 66.1066 273.831 65.9099 273.541C65.7131 273.251 65.5848 272.92 65.5347 272.573L65.4829 272.215C65.4191 271.774 65.4837 271.323 65.6688 270.918C65.8539 270.513 66.1517 270.169 66.5268 269.928L67.003 269.622C67.2839 269.442 67.6155 269.357 67.9484 269.381C68.2814 269.404 68.5979 269.535 68.8507 269.753L69.2751 270.118C69.7918 270.564 70.5971 270.3 70.7497 269.635L71.2023 267.663C71.3209 267.146 71.5702 266.668 71.9263 266.275C72.2824 265.883 72.7334 265.588 73.236 265.419L76.5765 264.299C77.5305 263.979 77.9308 262.848 77.3906 262L75.872 259.613C75.4547 258.958 74.616 258.713 73.9115 259.041L72.6574 259.626C72.0088 259.928 71.2005 259.799 70.7627 259.232C70.1979 258.502 70.4248 257.453 71.2217 257.015L74.3735 255.285C75.419 254.711 76.7294 255.022 77.4051 256.005L77.698 256.431C77.9113 256.741 78.197 256.995 78.5304 257.171C78.8638 257.346 79.2348 257.438 79.6115 257.438H81.0298C81.4895 257.438 81.9389 257.301 82.321 257.046C82.7031 256.79 83.0008 256.427 83.1763 256.002L84.0204 253.959C84.2096 253.501 84.2861 253.004 84.2436 252.511C84.2011 252.017 84.0407 251.541 83.776 251.122Z" fill="#98DB7C"/>
<path d="M74.1446 294.89C75.1835 295.358 76.2546 295.751 77.3498 296.066L76.5988 292.927C75.3976 292.861 74.2032 292.704 73.0256 292.457L74.1446 294.89Z" fill="#77CC7D"/>
</g>
<path d="M124.734 281V263.938H127.898V281H124.734ZM131.121 281V269.012H134.016L134.086 270.477H134.145C134.488 269.961 134.973 269.547 135.598 269.234C136.23 268.922 136.938 268.766 137.719 268.766C138.938 268.766 139.922 269.113 140.672 269.809C141.43 270.496 141.809 271.676 141.809 273.348V281H138.75V273.406C138.75 272.586 138.57 272.008 138.211 271.672C137.852 271.328 137.348 271.156 136.699 271.156C136.145 271.156 135.645 271.312 135.199 271.625C134.754 271.93 134.414 272.344 134.18 272.867V281H131.121ZM144 275.188V274.812C144 273.047 144.469 271.602 145.406 270.477C146.344 269.344 147.578 268.777 149.109 268.777C149.914 268.777 150.605 268.918 151.184 269.199C151.762 269.48 152.215 269.852 152.543 270.312V263.234H155.578V281H152.695L152.625 279.5H152.578C152.289 279.984 151.84 280.395 151.23 280.73C150.629 281.066 149.926 281.234 149.121 281.234C147.535 281.234 146.285 280.672 145.371 279.547C144.457 278.414 144 276.961 144 275.188ZM147.117 275.27C147.117 276.34 147.344 277.219 147.797 277.906C148.258 278.586 148.961 278.926 149.906 278.926C150.547 278.926 151.09 278.75 151.535 278.398C151.988 278.047 152.316 277.637 152.52 277.168V272.82C152.316 272.352 151.996 271.945 151.559 271.602C151.121 271.258 150.574 271.086 149.918 271.086C148.973 271.086 148.27 271.43 147.809 272.117C147.348 272.805 147.117 273.68 147.117 274.742V275.27ZM158.426 276.57V269.012H161.484V276.547C161.484 277.406 161.664 278.008 162.023 278.352C162.391 278.695 162.895 278.867 163.535 278.867C164.105 278.867 164.609 278.707 165.047 278.387C165.484 278.059 165.82 277.648 166.055 277.156V269.012H169.113V281H166.219L166.148 279.523H166.09C165.715 280.055 165.215 280.477 164.59 280.789C163.965 281.094 163.258 281.246 162.469 281.246C161.266 281.246 160.289 280.887 159.539 280.168C158.797 279.449 158.426 278.25 158.426 276.57ZM171.41 277.273L174.363 277.285V277.449C174.363 278.066 174.57 278.52 174.984 278.809C175.406 279.09 175.977 279.23 176.695 279.23C177.406 279.23 177.949 279.098 178.324 278.832C178.707 278.566 178.898 278.203 178.898 277.742C178.898 277.289 178.711 276.949 178.336 276.723C177.961 276.496 177.141 276.242 175.875 275.961C174.484 275.664 173.445 275.223 172.758 274.637C172.078 274.051 171.738 273.266 171.738 272.281C171.738 271.18 172.184 270.305 173.074 269.656C173.965 269 175.168 268.672 176.684 268.672C178.199 268.672 179.41 269.008 180.316 269.68C181.223 270.352 181.676 271.273 181.676 272.445V272.586H178.734V272.398C178.734 271.883 178.562 271.488 178.219 271.215C177.875 270.941 177.359 270.805 176.672 270.805C175.992 270.805 175.496 270.922 175.184 271.156C174.871 271.391 174.715 271.703 174.715 272.094C174.715 272.477 174.906 272.781 175.289 273.008C175.68 273.234 176.512 273.484 177.785 273.758C179.184 274.055 180.223 274.492 180.902 275.07C181.59 275.648 181.934 276.453 181.934 277.484C181.934 278.68 181.492 279.621 180.609 280.309C179.727 280.988 178.43 281.328 176.719 281.328C175.016 281.328 173.707 280.984 172.793 280.297C171.879 279.609 171.418 278.648 171.41 277.414V277.273ZM182.812 271.273V269.012H190.195V271.273H182.812ZM184.723 277.578V270.066L184.746 269.773V265.871H187.77V277.391C187.77 278.008 187.875 278.426 188.086 278.645C188.297 278.863 188.613 278.973 189.035 278.973C189.223 278.973 189.41 278.953 189.598 278.914C189.785 278.875 189.973 278.82 190.16 278.75V280.988C189.965 281.074 189.695 281.152 189.352 281.223C189.016 281.293 188.633 281.328 188.203 281.328C187.141 281.328 186.293 281.031 185.66 280.438C185.035 279.836 184.723 278.883 184.723 277.578ZM192.152 281V269.012H195.07L195.129 270.453H195.188C195.461 269.977 195.832 269.566 196.301 269.223C196.77 268.879 197.309 268.707 197.918 268.707C198.098 268.707 198.277 268.727 198.457 268.766C198.637 268.797 198.762 268.828 198.832 268.859V271.461C198.691 271.422 198.535 271.395 198.363 271.379C198.191 271.355 198.008 271.344 197.812 271.344C197.234 271.344 196.715 271.512 196.254 271.848C195.793 272.184 195.453 272.609 195.234 273.125V281H192.152ZM200.672 281V269.012H203.742V281H200.672ZM200.391 265.402C200.391 264.934 200.547 264.539 200.859 264.219C201.18 263.891 201.629 263.727 202.207 263.727C202.793 263.727 203.238 263.887 203.543 264.207C203.855 264.527 204.012 264.926 204.012 265.402C204.012 265.879 203.855 266.281 203.543 266.609C203.23 266.93 202.781 267.09 202.195 267.09C201.617 267.09 201.172 266.93 200.859 266.609C200.547 266.281 200.391 265.879 200.391 265.402ZM206.109 275.188V274.812C206.109 272.969 206.648 271.484 207.727 270.359C208.812 269.234 210.223 268.672 211.957 268.672C213.691 268.672 215.039 269.203 216 270.266C216.969 271.32 217.453 272.773 217.453 274.625V275.691H208.043V273.746H214.43V273.523C214.43 272.805 214.219 272.195 213.797 271.695C213.383 271.188 212.773 270.934 211.969 270.934C211.047 270.934 210.348 271.277 209.871 271.965C209.402 272.652 209.168 273.547 209.168 274.648V275.281C209.168 276.406 209.418 277.316 209.918 278.012C210.426 278.699 211.184 279.043 212.191 279.043C212.863 279.043 213.441 278.887 213.926 278.574C214.41 278.262 214.801 277.891 215.098 277.461L217.301 278.773C216.918 279.492 216.293 280.102 215.426 280.602C214.559 281.094 213.492 281.34 212.227 281.34C210.297 281.34 208.793 280.777 207.715 279.652C206.645 278.52 206.109 277.031 206.109 275.188ZM218.965 277.273L221.918 277.285V277.449C221.918 278.066 222.125 278.52 222.539 278.809C222.961 279.09 223.531 279.23 224.25 279.23C224.961 279.23 225.504 279.098 225.879 278.832C226.262 278.566 226.453 278.203 226.453 277.742C226.453 277.289 226.266 276.949 225.891 276.723C225.516 276.496 224.695 276.242 223.43 275.961C222.039 275.664 221 275.223 220.312 274.637C219.633 274.051 219.293 273.266 219.293 272.281C219.293 271.18 219.738 270.305 220.629 269.656C221.52 269 222.723 268.672 224.238 268.672C225.754 268.672 226.965 269.008 227.871 269.68C228.777 270.352 229.23 271.273 229.23 272.445V272.586H226.289V272.398C226.289 271.883 226.117 271.488 225.773 271.215C225.43 270.941 224.914 270.805 224.227 270.805C223.547 270.805 223.051 270.922 222.738 271.156C222.426 271.391 222.27 271.703 222.27 272.094C222.27 272.477 222.461 272.781 222.844 273.008C223.234 273.234 224.066 273.484 225.34 273.758C226.738 274.055 227.777 274.492 228.457 275.07C229.145 275.648 229.488 276.453 229.488 277.484C229.488 278.68 229.047 279.621 228.164 280.309C227.281 280.988 225.984 281.328 224.273 281.328C222.57 281.328 221.262 280.984 220.348 280.297C219.434 279.609 218.973 278.648 218.965 277.414V277.273ZM236.848 277.273L239.801 277.285V277.449C239.801 278.066 240.008 278.52 240.422 278.809C240.844 279.09 241.414 279.23 242.133 279.23C242.844 279.23 243.387 279.098 243.762 278.832C244.145 278.566 244.336 278.203 244.336 277.742C244.336 277.289 244.148 276.949 243.773 276.723C243.398 276.496 242.578 276.242 241.312 275.961C239.922 275.664 238.883 275.223 238.195 274.637C237.516 274.051 237.176 273.266 237.176 272.281C237.176 271.18 237.621 270.305 238.512 269.656C239.402 269 240.605 268.672 242.121 268.672C243.637 268.672 244.848 269.008 245.754 269.68C246.66 270.352 247.113 271.273 247.113 272.445V272.586H244.172V272.398C244.172 271.883 244 271.488 243.656 271.215C243.312 270.941 242.797 270.805 242.109 270.805C241.43 270.805 240.934 270.922 240.621 271.156C240.309 271.391 240.152 271.703 240.152 272.094C240.152 272.477 240.344 272.781 240.727 273.008C241.117 273.234 241.949 273.484 243.223 273.758C244.621 274.055 245.66 274.492 246.34 275.07C247.027 275.648 247.371 276.453 247.371 277.484C247.371 278.68 246.93 279.621 246.047 280.309C245.164 280.988 243.867 281.328 242.156 281.328C240.453 281.328 239.145 280.984 238.23 280.297C237.316 279.609 236.855 278.648 236.848 277.414V277.273ZM249.047 275.188V274.812C249.047 272.969 249.586 271.484 250.664 270.359C251.75 269.234 253.16 268.672 254.895 268.672C256.629 268.672 257.977 269.203 258.938 270.266C259.906 271.32 260.391 272.773 260.391 274.625V275.691H250.98V273.746H257.367V273.523C257.367 272.805 257.156 272.195 256.734 271.695C256.32 271.188 255.711 270.934 254.906 270.934C253.984 270.934 253.285 271.277 252.809 271.965C252.34 272.652 252.105 273.547 252.105 274.648V275.281C252.105 276.406 252.355 277.316 252.855 278.012C253.363 278.699 254.121 279.043 255.129 279.043C255.801 279.043 256.379 278.887 256.863 278.574C257.348 278.262 257.738 277.891 258.035 277.461L260.238 278.773C259.855 279.492 259.23 280.102 258.363 280.602C257.496 281.094 256.43 281.34 255.164 281.34C253.234 281.34 251.73 280.777 250.652 279.652C249.582 278.52 249.047 277.031 249.047 275.188ZM262.582 281V269.012H265.5L265.559 270.453H265.617C265.891 269.977 266.262 269.566 266.73 269.223C267.199 268.879 267.738 268.707 268.348 268.707C268.527 268.707 268.707 268.727 268.887 268.766C269.066 268.797 269.191 268.828 269.262 268.859V271.461C269.121 271.422 268.965 271.395 268.793 271.379C268.621 271.355 268.438 271.344 268.242 271.344C267.664 271.344 267.145 271.512 266.684 271.848C266.223 272.184 265.883 272.609 265.664 273.125V281H262.582ZM269.684 269.012H272.742L275.344 276.348C275.438 276.629 275.516 276.891 275.578 277.133C275.641 277.375 275.688 277.59 275.719 277.777H275.789C275.82 277.59 275.867 277.375 275.93 277.133C275.992 276.891 276.07 276.629 276.164 276.348L278.777 269.012H281.566L277.008 281H274.266L269.684 269.012ZM282.141 275.188V274.812C282.141 272.969 282.68 271.484 283.758 270.359C284.844 269.234 286.254 268.672 287.988 268.672C289.723 268.672 291.07 269.203 292.031 270.266C293 271.32 293.484 272.773 293.484 274.625V275.691H284.074V273.746H290.461V273.523C290.461 272.805 290.25 272.195 289.828 271.695C289.414 271.188 288.805 270.934 288 270.934C287.078 270.934 286.379 271.277 285.902 271.965C285.434 272.652 285.199 273.547 285.199 274.648V275.281C285.199 276.406 285.449 277.316 285.949 278.012C286.457 278.699 287.215 279.043 288.223 279.043C288.895 279.043 289.473 278.887 289.957 278.574C290.441 278.262 290.832 277.891 291.129 277.461L293.332 278.773C292.949 279.492 292.324 280.102 291.457 280.602C290.59 281.094 289.523 281.34 288.258 281.34C286.328 281.34 284.824 280.777 283.746 279.652C282.676 278.52 282.141 277.031 282.141 275.188ZM295.008 275.188V274.812C295.008 273.047 295.477 271.602 296.414 270.477C297.352 269.344 298.586 268.777 300.117 268.777C300.922 268.777 301.613 268.918 302.191 269.199C302.77 269.48 303.223 269.852 303.551 270.312V263.234H306.586V281H303.703L303.633 279.5H303.586C303.297 279.984 302.848 280.395 302.238 280.73C301.637 281.066 300.934 281.234 300.129 281.234C298.543 281.234 297.293 280.672 296.379 279.547C295.465 278.414 295.008 276.961 295.008 275.188ZM298.125 275.27C298.125 276.34 298.352 277.219 298.805 277.906C299.266 278.586 299.969 278.926 300.914 278.926C301.555 278.926 302.098 278.75 302.543 278.398C302.996 278.047 303.324 277.637 303.527 277.168V272.82C303.324 272.352 303.004 271.945 302.566 271.602C302.129 271.258 301.582 271.086 300.926 271.086C299.98 271.086 299.277 271.43 298.816 272.117C298.355 272.805 298.125 273.68 298.125 274.742V275.27Z" fill="#393939"/>
<path d="M455.691 275.293V269.645C455.691 267.809 456.184 266.344 457.168 265.25C458.16 264.156 459.566 263.609 461.387 263.609C463.199 263.609 464.602 264.156 465.594 265.25C466.594 266.336 467.094 267.801 467.094 269.645V275.293C467.094 277.145 466.59 278.613 465.582 279.699C464.574 280.785 463.176 281.328 461.387 281.328C459.566 281.32 458.16 280.773 457.168 279.688C456.184 278.602 455.691 277.137 455.691 275.293ZM458.914 275.633C458.914 276.625 459.109 277.422 459.5 278.023C459.898 278.625 460.531 278.926 461.398 278.926C462.258 278.926 462.887 278.625 463.285 278.023C463.684 277.422 463.883 276.625 463.883 275.633V269.328C463.883 268.328 463.684 267.527 463.285 266.926C462.887 266.324 462.258 266.023 461.398 266.023C460.531 266.023 459.898 266.324 459.5 266.926C459.109 267.527 458.914 268.328 458.914 269.328V275.633ZM470.867 281L477.031 266.527H468.629V263.938H480.312V265.988L474.184 281H470.867ZM482.164 274.426V271.777H493.121V274.426H482.164ZM486.184 278.867V267.336H489.102V278.867H486.184Z" fill="#393939"/>
<rect x="36" y="342" width="482" height="90" rx="45" fill="white"/>
<g clip-path="url(#clip1_1794_2543)">
<path d="M74.7 394.256C73.8563 393.731 72.75 393.994 72.2438 394.838L71.5125 396.019C70.9875 396.863 71.25 397.969 72.0938 398.475C72.9375 399 74.0438 398.738 74.55 397.894L75.2813 396.713C75.7875 395.869 75.5438 394.781 74.7 394.256Z" fill="#F9D0B4"/>
<path d="M78.1125 395.513C77.2688 394.988 76.1625 395.25 75.6563 396.094L74.1 398.625C73.575 399.469 73.8375 400.575 74.6813 401.081C75.525 401.606 76.6313 401.344 77.1375 400.5L78.6938 397.969C79.2188 397.125 78.9563 396.038 78.1125 395.513Z" fill="#F9D0B4"/>
<path d="M81.1688 397.388C80.325 396.863 79.2188 397.125 78.7125 397.969L77.1375 400.5C76.6125 401.344 76.875 402.45 77.7188 402.956C78.5625 403.481 79.6688 403.219 80.175 402.375L81.7313 399.844C82.2563 399 81.9938 397.913 81.1688 397.388Z" fill="#F9D0B4"/>
<path d="M83.8124 399.881C82.9687 399.356 81.8624 399.619 81.3562 400.463L80.6249 401.644C80.0999 402.488 80.3624 403.594 81.2062 404.1C82.0499 404.625 83.1562 404.363 83.6624 403.519L84.3937 402.338C84.9187 401.513 84.6562 400.406 83.8124 399.881Z" fill="#F9D0B4"/>
<path d="M72.975 378.6L70.7437 377.231L63.1875 389.569L65.4187 390.938C66.0187 391.313 66.8062 391.125 67.1812 390.506L73.4062 380.344C73.7625 379.763 73.575 378.956 72.975 378.6ZM97.2562 377.231L95.025 378.6C94.425 378.975 94.2375 379.763 94.5938 380.363L100.819 390.525C101.194 391.125 101.981 391.313 102.581 390.956L104.812 389.588L97.2562 377.231Z" fill="#DAE6F1"/>
<path d="M100.837 390.506L94.6125 380.344C94.5 380.156 94.425 379.931 94.425 379.688C91.3125 380.513 88.0312 379.594 84.4687 379.594C80.625 379.594 77.1187 383.006 75.7312 385.162C75.0562 386.194 76.5187 387.581 77.7562 387.488C78.7687 387.413 80.9625 386.606 82.3875 384.938C82.5562 384.75 82.8375 384.712 83.0437 384.862C84.5812 385.931 86.5125 386.288 88.3312 385.856C91.5937 387.806 94.9125 390.225 97.0125 392.119C97.275 392.363 97.4812 392.644 97.6312 392.963C98.925 392.438 100.144 391.594 101.1 390.825C101.006 390.731 100.912 390.637 100.837 390.506Z" fill="#F9D0B4"/>
<path d="M97.0313 392.119C94.9313 390.225 91.6125 387.806 88.35 385.856C86.5313 386.287 84.6 385.931 83.0625 384.862C82.8563 384.712 82.575 384.75 82.4063 384.937C80.9813 386.606 78.7875 387.412 77.775 387.487C76.5563 387.581 75.075 386.194 75.75 385.162C76.4438 384.112 77.2875 383.175 78.2438 382.35C76.4813 382.087 74.775 381.506 73.2188 380.644L67.1813 390.506C67.1438 390.544 67.125 390.6 67.0875 390.637C67.9875 391.256 68.7375 392.044 69.3188 392.962C69.975 393.994 70.7625 394.969 71.6438 395.812L72.2625 394.819C72.7875 393.975 73.875 393.712 74.7188 394.237C75.5625 394.762 75.825 395.85 75.3 396.694L75.675 396.075C76.2 395.231 77.2875 394.969 78.1313 395.494C78.975 396.019 79.2375 397.106 78.7125 397.95C79.2375 397.106 80.325 396.844 81.1688 397.369C82.0125 397.894 82.275 398.981 81.75 399.825L81.375 400.444C81.9 399.6 82.9875 399.337 83.8313 399.862C84.675 400.387 84.9188 401.475 84.4125 402.319L84.1313 402.769C87.7875 404.231 88.8563 401.419 88.8563 401.419C92.2313 401.419 91.7438 398.944 91.7438 398.944C95.2875 399.375 94.5 396.187 94.5 396.187C94.5563 396.206 94.6125 396.244 94.6875 396.262C97.1625 397.106 98.9625 393.862 97.0313 392.119Z" fill="#F9D0B4"/>
<path d="M70.5 376.031L62.7 371.25L60.4688 389.175L61.9125 390.056C62.2875 390.3 62.7938 390.169 63.0375 389.794L70.7812 377.156C71.0063 376.781 70.8938 376.275 70.5 376.031Z" fill="#5290DB"/>
<path d="M105.3 371.25L97.5 376.031C97.125 376.275 96.9938 376.763 97.2375 377.156L104.981 389.794C105.225 390.169 105.713 390.3 106.106 390.056L107.55 389.175L105.3 371.25Z" fill="#5B5D60"/>
<path d="M69.5624 401.363C68.9812 401.25 68.5124 400.8 68.3999 400.219C68.3999 400.2 68.3437 400.2 68.3437 400.219C68.2312 400.8 67.7624 401.25 67.1812 401.363C67.1624 401.363 67.1624 401.4 67.1812 401.419C67.7624 401.531 68.2312 401.981 68.3437 402.563C68.3437 402.581 68.3999 402.581 68.3999 402.563C68.5124 401.981 68.9812 401.531 69.5624 401.419C69.5812 401.4 69.5812 401.363 69.5624 401.363Z" fill="#87D147"/>
<path d="M103.331 399.638H102.881V399.206C102.881 398.888 102.619 398.606 102.3 398.606H102.281C101.962 398.606 101.7 398.869 101.681 399.188V399.638H101.25C100.931 399.638 100.65 399.9 100.65 400.219V400.238C100.631 400.556 100.894 400.819 101.212 400.838H101.681V401.269C101.681 401.588 101.944 401.869 102.262 401.869H102.281C102.6 401.869 102.862 401.606 102.881 401.288V400.838H103.312C103.631 400.838 103.912 400.575 103.912 400.256V400.238C103.912 399.919 103.65 399.656 103.331 399.638Z" fill="#70D6F9"/>
<path d="M91.7625 406.988C92.1146 406.988 92.4 406.702 92.4 406.35C92.4 405.998 92.1146 405.713 91.7625 405.713C91.4104 405.713 91.125 405.998 91.125 406.35C91.125 406.702 91.4104 406.988 91.7625 406.988Z" fill="#F5C84C"/>
<path d="M88.95 368.288C89.3021 368.288 89.5875 368.002 89.5875 367.65C89.5875 367.298 89.3021 367.013 88.95 367.013C88.5979 367.013 88.3125 367.298 88.3125 367.65C88.3125 368.002 88.5979 368.288 88.95 368.288Z" fill="#FC657E"/>
<path d="M79.875 370.594C79.0312 370.444 78.375 369.788 78.2062 368.963C78.2062 368.925 78.1312 368.925 78.1312 368.963C77.9625 369.788 77.3062 370.444 76.4625 370.594C76.425 370.594 76.425 370.65 76.4625 370.669C77.3062 370.819 77.9625 371.475 78.1312 372.3C78.1312 372.338 78.2062 372.338 78.2062 372.3C78.375 371.475 79.0312 370.819 79.875 370.669C79.9125 370.65 79.9125 370.594 79.875 370.594Z" fill="#F5C84C"/>
<path d="M94.7625 395.794L88.8 392.025C88.575 391.894 88.2937 391.95 88.1437 392.156C88.0125 392.381 88.0687 392.663 88.275 392.813L94.2375 396.581C94.4625 396.731 94.7437 396.656 94.8937 396.45C95.0437 396.244 94.9875 395.944 94.7625 395.794ZM91.9687 398.569L86.4187 395.194C86.1937 395.063 85.9125 395.138 85.7812 395.344C85.65 395.569 85.725 395.85 85.9312 395.981L91.4812 399.356C91.7062 399.488 91.9875 399.413 92.1187 399.206C92.25 399 92.1937 398.7 91.9687 398.569ZM89.0812 401.044L85.4437 398.981C85.2187 398.85 84.9375 398.925 84.8062 399.15C84.675 399.375 84.75 399.656 84.975 399.788L88.6125 401.85C88.8375 401.981 89.1187 401.906 89.25 401.681C89.3812 401.456 89.3062 401.175 89.0812 401.044ZM75.9562 395.25C75.675 394.031 74.4562 393.281 73.2375 393.581C72.6562 393.713 72.15 394.088 71.8312 394.594L71.1 395.775C70.4437 396.844 70.7812 398.231 71.8312 398.888C72.9 399.544 74.2875 399.206 74.9437 398.156L75.675 396.975C75.9937 396.45 76.0875 395.831 75.9562 395.25ZM74.8875 396.469L74.1562 397.65C73.7812 398.269 72.9562 398.456 72.3375 398.081C71.7187 397.706 71.5312 396.881 71.9062 396.263L72.6375 395.081C73.0125 394.463 73.8375 394.275 74.4562 394.65C75.075 395.044 75.2625 395.85 74.8875 396.469Z" fill="black"/>
<path d="M79.3688 396.506C79.0875 395.288 77.8688 394.538 76.65 394.838C76.0688 394.969 75.5625 395.344 75.2438 395.85L73.6875 398.381C73.0313 399.45 73.3688 400.838 74.4188 401.494C75.4875 402.15 76.875 401.813 77.5313 400.763L79.0875 398.231C79.425 397.706 79.5188 397.088 79.3688 396.506ZM78.3 397.725L76.7438 400.256C76.3688 400.875 75.5438 401.063 74.925 400.688C74.3063 400.313 74.1188 399.488 74.4938 398.869L76.05 396.338C76.425 395.719 77.25 395.531 77.8688 395.906C78.4875 396.281 78.6938 397.088 78.3 397.725Z" fill="black"/>
<path d="M82.425 398.381C82.1438 397.163 80.925 396.413 79.7063 396.713C79.125 396.844 78.6188 397.219 78.3 397.725L76.7438 400.256C76.0875 401.325 76.425 402.713 77.475 403.369C77.8313 403.594 78.2438 403.706 78.6563 403.706C78.825 403.706 79.0125 403.688 79.1813 403.65C79.7625 403.519 80.2688 403.144 80.5875 402.638L82.1438 400.106C82.4625 399.581 82.5563 398.963 82.425 398.381ZM81.3375 399.6L79.7813 402.131C79.4063 402.75 78.5813 402.938 77.9625 402.563C77.3438 402.188 77.1563 401.363 77.5313 400.744L79.0875 398.213C79.4625 397.594 80.2875 397.406 80.9063 397.781C81.5438 398.156 81.7313 398.981 81.3375 399.6Z" fill="black"/>
<path d="M84.0562 399.488C82.9875 398.831 81.6 399.169 80.9437 400.219L80.2125 401.4C79.5562 402.469 79.8937 403.856 80.9437 404.513C81.3 404.738 81.7125 404.85 82.125 404.85C82.2937 404.85 82.4812 404.831 82.65 404.794C83.2312 404.663 83.7375 404.288 84.0562 403.781L84.7875 402.6C85.4437 401.531 85.125 400.144 84.0562 399.488ZM84 402.094L83.2687 403.275C82.8937 403.894 82.0687 404.081 81.45 403.706C80.8312 403.331 80.6437 402.506 81.0187 401.888L81.75 400.706C82.125 400.088 82.95 399.9 83.5687 400.275C84.1875 400.669 84.375 401.475 84 402.094ZM74.0062 379.275C73.8937 378.825 73.6125 378.431 73.2187 378.188L70.9875 376.819C70.7625 376.688 70.4812 376.744 70.35 376.969L62.7937 389.306C62.6625 389.531 62.7187 389.813 62.9437 389.944L65.175 391.313C65.4562 391.481 65.7562 391.575 66.0937 391.575C66.225 391.575 66.375 391.556 66.5062 391.519C66.9562 391.406 67.35 391.125 67.5937 390.731L73.8187 380.569C74.025 380.213 74.1 379.725 74.0062 379.275ZM72.9937 380.119L66.7687 390.281C66.525 390.656 66.0375 390.788 65.6437 390.544L63.8062 389.419L70.875 377.869L72.7125 378.994C73.1062 379.238 73.2187 379.725 72.9937 380.119ZM105.225 389.325L97.6687 376.988C97.5375 376.763 97.2375 376.706 97.0312 376.838L94.7812 378.188C93.9562 378.694 93.6937 379.763 94.2 380.588L100.425 390.75C100.669 391.144 101.062 391.425 101.512 391.538C101.644 391.575 101.794 391.594 101.925 391.594C102.244 391.594 102.562 391.5 102.844 391.331L105.075 389.963C105.3 389.831 105.356 389.55 105.225 389.325ZM102.356 390.544C101.981 390.788 101.475 390.656 101.231 390.281L95.0062 380.119C94.7625 379.744 94.8937 379.238 95.2687 378.994L97.1062 377.869L104.175 389.419L102.356 390.544Z" fill="black"/>
<path d="M101.4 390.469C101.325 390.413 101.269 390.337 101.231 390.262L95.0062 380.1C94.9312 379.969 94.8938 379.838 94.8938 379.688C94.8938 379.425 94.6688 379.219 94.425 379.219C94.3875 379.219 94.35 379.219 94.3125 379.237C92.3813 379.744 90.3562 379.556 88.2 379.35C87 379.237 85.7625 379.125 84.4875 379.125C80.2313 379.125 76.65 382.894 75.3563 384.9C75.0188 385.425 75.0375 386.119 75.375 386.644C75.8625 387.469 76.9125 388.031 77.7938 387.956C78.975 387.863 81.2812 386.963 82.7438 385.238C82.7438 385.219 82.7625 385.219 82.7812 385.238C84.375 386.344 86.3625 386.738 88.2562 386.344C91.3125 388.181 94.5375 390.506 96.7125 392.456C96.9375 392.644 97.1062 392.888 97.2188 393.15C97.3125 393.375 97.5937 393.488 97.8187 393.394C99.1125 392.85 100.331 392.1 101.4 391.181C101.606 391.013 101.625 390.731 101.475 390.525C101.456 390.506 101.438 390.488 101.4 390.469ZM97.8562 392.363C97.7062 392.138 97.5375 391.931 97.3313 391.762C95.0813 389.737 91.725 387.319 88.575 385.444C88.4812 385.387 88.35 385.369 88.2375 385.388C86.55 385.781 84.7688 385.463 83.325 384.469C82.9125 384.188 82.35 384.244 82.0312 384.638C80.7562 386.138 78.6937 386.944 77.7187 387.019C77.175 387.056 76.4813 386.681 76.1813 386.156C76.0125 385.875 75.9937 385.631 76.1437 385.406C77.55 383.25 80.925 380.063 84.4875 380.063C85.725 380.063 86.9437 380.175 88.125 380.287C90.1875 380.475 92.1375 380.663 94.0687 380.25C94.1062 380.363 94.1625 380.475 94.2188 380.569L100.444 390.731C99.6375 391.387 98.775 391.931 97.8562 392.363Z" fill="black"/>
<path d="M97.3312 391.763C95.0812 389.738 91.725 387.319 88.575 385.444C88.4812 385.388 88.35 385.369 88.2375 385.388C86.55 385.781 84.7687 385.463 83.325 384.469C82.9125 384.188 82.35 384.244 82.0312 384.638C80.7562 386.138 78.6937 386.944 77.7187 387.019C77.175 387.056 76.4812 386.681 76.1812 386.156C76.0125 385.875 75.9937 385.631 76.1437 385.406C76.8187 384.394 77.625 383.494 78.5437 382.688C78.7312 382.519 78.75 382.219 78.5812 382.031C78.5062 381.938 78.4125 381.9 78.3 381.881C76.5937 381.619 74.9437 381.056 73.4437 380.231C73.2187 380.119 72.9562 380.175 72.825 380.4L66.7875 390.263C66.7687 390.3 66.75 390.319 66.7312 390.356C66.5625 390.563 66.6 390.844 66.8062 391.013C66.825 391.013 66.825 391.031 66.8437 391.031C67.6875 391.613 68.4 392.363 68.9437 393.225C69.6187 394.294 70.425 395.288 71.3437 396.169C71.5312 396.356 71.8312 396.338 72 396.15C72.0187 396.131 72.0375 396.094 72.0562 396.075L72.675 395.081C73.05 394.463 73.875 394.275 74.4937 394.65C75.1125 395.025 75.3 395.85 74.925 396.469C74.7937 396.694 74.8687 396.975 75.075 397.106C75.3 397.238 75.5812 397.181 75.7125 396.956L76.0875 396.338C76.4625 395.719 77.2875 395.531 77.9062 395.906C78.525 396.281 78.7125 397.106 78.3375 397.725C78.2062 397.95 78.2625 398.231 78.4875 398.363C78.7125 398.494 78.9937 398.438 79.125 398.213C79.5 397.594 80.325 397.406 80.9437 397.781C81.5625 398.156 81.75 398.981 81.375 399.6L81 400.219C80.8687 400.444 80.925 400.725 81.15 400.856C81.375 400.988 81.6562 400.931 81.7875 400.706C82.1625 400.088 82.9875 399.9 83.6062 400.275C84.225 400.65 84.4125 401.475 84.0375 402.094L83.7562 402.544C83.625 402.769 83.6812 403.05 83.9062 403.181C83.925 403.2 83.9625 403.2 83.9812 403.219C84.6562 403.5 85.3687 403.65 86.1 403.669C86.6062 403.669 87.0937 403.575 87.5625 403.369C88.2375 403.069 88.8 402.544 89.175 401.888C90.3375 401.831 91.1812 401.494 91.7062 400.856C92.025 400.463 92.2125 399.956 92.2312 399.45C93.225 399.469 93.9937 399.188 94.4812 398.625C94.8937 398.119 95.1 397.463 95.0625 396.806C96.2062 396.975 97.35 396.413 97.9125 395.419C98.4937 394.406 98.5687 392.869 97.3312 391.763ZM97.0875 394.969C96.6562 395.775 95.7 396.131 94.8375 395.831C94.7812 395.813 94.7437 395.794 94.6875 395.775C94.4437 395.681 94.1812 395.794 94.0687 396.038C94.0312 396.131 94.0312 396.225 94.05 396.338C94.05 396.356 94.3125 397.444 93.75 398.081C93.3937 398.494 92.7187 398.644 91.7812 398.55C91.5187 398.513 91.2937 398.7 91.2562 398.963V399.113C91.3125 399.544 91.2 399.975 90.9375 400.331C90.5625 400.8 89.85 401.025 88.8375 401.025C88.65 401.025 88.4625 401.138 88.4062 401.325C88.1437 401.869 87.7125 402.319 87.15 402.581C86.5125 402.863 85.725 402.863 84.825 402.6C85.4625 401.531 85.1062 400.144 84.0375 399.506C83.5687 399.225 83.0062 399.131 82.4625 399.225C82.6125 397.988 81.75 396.863 80.5125 396.713C80.1375 396.675 79.7812 396.713 79.425 396.844C79.4062 396.75 79.4062 396.656 79.3687 396.563C79.0875 395.344 77.8687 394.594 76.65 394.894C76.3875 394.95 76.1437 395.063 75.9187 395.213C75.5812 394.013 74.325 393.319 73.1437 393.656C72.6 393.806 72.1312 394.163 71.8312 394.65L71.5312 395.138C70.8375 394.425 70.2187 393.638 69.6937 392.794C69.1687 391.95 68.4937 391.2 67.7062 390.6L73.3687 381.338C74.5875 381.975 75.8812 382.444 77.2125 382.725C76.5187 383.419 75.8812 384.169 75.3375 384.975C75 385.5 75.0187 386.194 75.3562 386.719C75.8437 387.544 76.8937 388.106 77.775 388.031C78.9562 387.938 81.2625 387.038 82.725 385.313C82.725 385.294 82.7437 385.294 82.7625 385.313C84.3562 386.419 86.3437 386.813 88.2375 386.419C91.2937 388.256 94.5187 390.581 96.6937 392.531C97.425 393.094 97.5937 394.144 97.0875 394.969ZM70.7625 375.638L62.9437 370.856C62.7187 370.725 62.4375 370.8 62.3062 371.025C62.175 371.25 62.25 371.531 62.4562 371.663L70.2562 376.444C70.425 376.538 70.4625 376.763 70.3687 376.913L62.625 389.55C62.5312 389.719 62.3062 389.756 62.1562 389.663L60.7125 388.781C60.4875 388.65 60.2062 388.706 60.075 388.931C59.9437 389.156 60 389.438 60.225 389.569H60.2437L61.6875 390.45C61.8937 390.581 62.1187 390.638 62.3625 390.638C62.4562 390.638 62.5687 390.619 62.6625 390.6C63 390.525 63.2812 390.319 63.45 390.019L71.1937 377.381C71.55 376.8 71.3625 376.013 70.7625 375.638ZM107.925 388.931C107.794 388.706 107.494 388.65 107.287 388.781L105.844 389.663C105.675 389.756 105.469 389.719 105.375 389.55L97.6312 376.913C97.5375 376.744 97.575 376.538 97.7437 376.444L105.544 371.663C105.769 371.531 105.825 371.231 105.694 371.025C105.562 370.819 105.281 370.744 105.056 370.875L97.2562 375.656C96.6562 376.031 96.4687 376.819 96.825 377.419L104.569 390.056C104.737 390.338 105.037 390.563 105.356 390.638C105.45 390.656 105.562 390.675 105.656 390.675C105.9 390.675 106.125 390.6 106.331 390.488L107.775 389.606C108 389.438 108.075 389.156 107.925 388.931Z" fill="black"/>
</g>
<path d="M124.125 386.984V385.953C124.125 383.203 124.801 381.129 126.152 379.73C127.504 378.324 129.246 377.621 131.379 377.621C133.441 377.621 135.062 378.16 136.242 379.238C137.422 380.316 138.012 381.723 138.012 383.457V383.82H134.871V383.375C134.871 382.344 134.582 381.535 134.004 380.949C133.426 380.355 132.547 380.059 131.367 380.059C130.172 380.059 129.207 380.496 128.473 381.371C127.746 382.246 127.383 383.645 127.383 385.566V387.371C127.383 389.176 127.746 390.547 128.473 391.484C129.199 392.422 130.176 392.891 131.402 392.891C132.527 392.891 133.371 392.586 133.934 391.977C134.496 391.367 134.805 390.543 134.859 389.504L134.871 389.129H138.012V389.539C137.926 391.219 137.316 392.602 136.184 393.688C135.051 394.773 133.449 395.316 131.379 395.316C129.207 395.316 127.453 394.609 126.117 393.195C124.789 391.781 124.125 389.711 124.125 386.984ZM140.25 395V377.234H143.32V395H140.25ZM146.391 395V383.012H149.461V395H146.391ZM146.109 379.402C146.109 378.934 146.266 378.539 146.578 378.219C146.898 377.891 147.348 377.727 147.926 377.727C148.512 377.727 148.957 377.887 149.262 378.207C149.574 378.527 149.73 378.926 149.73 379.402C149.73 379.879 149.574 380.281 149.262 380.609C148.949 380.93 148.5 381.09 147.914 381.09C147.336 381.09 146.891 380.93 146.578 380.609C146.266 380.281 146.109 379.879 146.109 379.402ZM151.828 389.188V388.812C151.828 386.969 152.367 385.484 153.445 384.359C154.531 383.234 155.941 382.672 157.676 382.672C159.41 382.672 160.758 383.203 161.719 384.266C162.688 385.32 163.172 386.773 163.172 388.625V389.691H153.762V387.746H160.148V387.523C160.148 386.805 159.938 386.195 159.516 385.695C159.102 385.188 158.492 384.934 157.688 384.934C156.766 384.934 156.066 385.277 155.59 385.965C155.121 386.652 154.887 387.547 154.887 388.648V389.281C154.887 390.406 155.137 391.316 155.637 392.012C156.145 392.699 156.902 393.043 157.91 393.043C158.582 393.043 159.16 392.887 159.645 392.574C160.129 392.262 160.52 391.891 160.816 391.461L163.02 392.773C162.637 393.492 162.012 394.102 161.145 394.602C160.277 395.094 159.211 395.34 157.945 395.34C156.016 395.34 154.512 394.777 153.434 393.652C152.363 392.52 151.828 391.031 151.828 389.188ZM165.363 395V383.012H168.258L168.328 384.477H168.387C168.73 383.961 169.215 383.547 169.84 383.234C170.473 382.922 171.18 382.766 171.961 382.766C173.18 382.766 174.164 383.113 174.914 383.809C175.672 384.496 176.051 385.676 176.051 387.348V395H172.992V387.406C172.992 386.586 172.812 386.008 172.453 385.672C172.094 385.328 171.59 385.156 170.941 385.156C170.387 385.156 169.887 385.312 169.441 385.625C168.996 385.93 168.656 386.344 168.422 386.867V395H165.363ZM177.445 385.273V383.012H184.828V385.273H177.445ZM179.355 391.578V384.066L179.379 383.773V379.871H182.402V391.391C182.402 392.008 182.508 392.426 182.719 392.645C182.93 392.863 183.246 392.973 183.668 392.973C183.855 392.973 184.043 392.953 184.23 392.914C184.418 392.875 184.605 392.82 184.793 392.75V394.988C184.598 395.074 184.328 395.152 183.984 395.223C183.648 395.293 183.266 395.328 182.836 395.328C181.773 395.328 180.926 395.031 180.293 394.438C179.668 393.836 179.355 392.883 179.355 391.578ZM192.48 395V383.012H195.398L195.457 384.453H195.516C195.789 383.977 196.16 383.566 196.629 383.223C197.098 382.879 197.637 382.707 198.246 382.707C198.426 382.707 198.605 382.727 198.785 382.766C198.965 382.797 199.09 382.828 199.16 382.859V385.461C199.02 385.422 198.863 385.395 198.691 385.379C198.52 385.355 198.336 385.344 198.141 385.344C197.562 385.344 197.043 385.512 196.582 385.848C196.121 386.184 195.781 386.609 195.562 387.125V395H192.48ZM200.086 389.188V388.812C200.086 386.969 200.625 385.484 201.703 384.359C202.789 383.234 204.199 382.672 205.934 382.672C207.668 382.672 209.016 383.203 209.977 384.266C210.945 385.32 211.43 386.773 211.43 388.625V389.691H202.02V387.746H208.406V387.523C208.406 386.805 208.195 386.195 207.773 385.695C207.359 385.188 206.75 384.934 205.945 384.934C205.023 384.934 204.324 385.277 203.848 385.965C203.379 386.652 203.145 387.547 203.145 388.648V389.281C203.145 390.406 203.395 391.316 203.895 392.012C204.402 392.699 205.16 393.043 206.168 393.043C206.84 393.043 207.418 392.887 207.902 392.574C208.387 392.262 208.777 391.891 209.074 391.461L211.277 392.773C210.895 393.492 210.27 394.102 209.402 394.602C208.535 395.094 207.469 395.34 206.203 395.34C204.273 395.34 202.77 394.777 201.691 393.652C200.621 392.52 200.086 391.031 200.086 389.188ZM212.156 385.273V383.012H219.539V385.273H212.156ZM214.066 391.578V384.066L214.09 383.773V379.871H217.113V391.391C217.113 392.008 217.219 392.426 217.43 392.645C217.641 392.863 217.957 392.973 218.379 392.973C218.566 392.973 218.754 392.953 218.941 392.914C219.129 392.875 219.316 392.82 219.504 392.75V394.988C219.309 395.074 219.039 395.152 218.695 395.223C218.359 395.293 217.977 395.328 217.547 395.328C216.484 395.328 215.637 395.031 215.004 394.438C214.379 393.836 214.066 392.883 214.066 391.578ZM220.828 389.188V388.812C220.828 386.969 221.367 385.484 222.445 384.359C223.531 383.234 224.941 382.672 226.676 382.672C228.41 382.672 229.758 383.203 230.719 384.266C231.688 385.32 232.172 386.773 232.172 388.625V389.691H222.762V387.746H229.148V387.523C229.148 386.805 228.938 386.195 228.516 385.695C228.102 385.188 227.492 384.934 226.688 384.934C225.766 384.934 225.066 385.277 224.59 385.965C224.121 386.652 223.887 387.547 223.887 388.648V389.281C223.887 390.406 224.137 391.316 224.637 392.012C225.145 392.699 225.902 393.043 226.91 393.043C227.582 393.043 228.16 392.887 228.645 392.574C229.129 392.262 229.52 391.891 229.816 391.461L232.02 392.773C231.637 393.492 231.012 394.102 230.145 394.602C229.277 395.094 228.211 395.34 226.945 395.34C225.016 395.34 223.512 394.777 222.434 393.652C221.363 392.52 220.828 391.031 220.828 389.188ZM234.363 395V383.012H237.258L237.328 384.477H237.387C237.73 383.961 238.215 383.547 238.84 383.234C239.473 382.922 240.18 382.766 240.961 382.766C242.18 382.766 243.164 383.113 243.914 383.809C244.672 384.496 245.051 385.676 245.051 387.348V395H241.992V387.406C241.992 386.586 241.812 386.008 241.453 385.672C241.094 385.328 240.59 385.156 239.941 385.156C239.387 385.156 238.887 385.312 238.441 385.625C237.996 385.93 237.656 386.344 237.422 386.867V395H234.363ZM246.445 385.273V383.012H253.828V385.273H246.445ZM248.355 391.578V384.066L248.379 383.773V379.871H251.402V391.391C251.402 392.008 251.508 392.426 251.719 392.645C251.93 392.863 252.246 392.973 252.668 392.973C252.855 392.973 253.043 392.953 253.23 392.914C253.418 392.875 253.605 392.82 253.793 392.75V394.988C253.598 395.074 253.328 395.152 252.984 395.223C252.648 395.293 252.266 395.328 251.836 395.328C250.773 395.328 249.926 395.031 249.293 394.438C248.668 393.836 248.355 392.883 248.355 391.578ZM255.844 395V383.012H258.914V395H255.844ZM255.562 379.402C255.562 378.934 255.719 378.539 256.031 378.219C256.352 377.891 256.801 377.727 257.379 377.727C257.965 377.727 258.41 377.887 258.715 378.207C259.027 378.527 259.184 378.926 259.184 379.402C259.184 379.879 259.027 380.281 258.715 380.609C258.402 380.93 257.953 381.09 257.367 381.09C256.789 381.09 256.344 380.93 256.031 380.609C255.719 380.281 255.562 379.879 255.562 379.402ZM261.281 389.188V388.812C261.281 386.961 261.836 385.477 262.945 384.359C264.062 383.234 265.531 382.672 267.352 382.672C269.172 382.672 270.637 383.234 271.746 384.359C272.863 385.477 273.422 386.961 273.422 388.812V389.188C273.422 391.039 272.863 392.527 271.746 393.652C270.637 394.77 269.172 395.328 267.352 395.328C265.531 395.328 264.062 394.77 262.945 393.652C261.836 392.527 261.281 391.039 261.281 389.188ZM264.398 388.695V389.305C264.398 390.438 264.648 391.34 265.148 392.012C265.656 392.676 266.387 393.008 267.34 393.008C268.301 393.008 269.031 392.676 269.531 392.012C270.039 391.34 270.293 390.438 270.293 389.305V388.695C270.293 387.562 270.039 386.664 269.531 386C269.023 385.336 268.293 385.004 267.34 385.004C266.395 385.004 265.668 385.336 265.16 386C264.652 386.664 264.398 387.562 264.398 388.695ZM275.73 395V383.012H278.625L278.695 384.477H278.754C279.098 383.961 279.582 383.547 280.207 383.234C280.84 382.922 281.547 382.766 282.328 382.766C283.547 382.766 284.531 383.113 285.281 383.809C286.039 384.496 286.418 385.676 286.418 387.348V395H283.359V387.406C283.359 386.586 283.18 386.008 282.82 385.672C282.461 385.328 281.957 385.156 281.309 385.156C280.754 385.156 280.254 385.312 279.809 385.625C279.363 385.93 279.023 386.344 278.789 386.867V395H275.73Z" fill="#393939"/>
<path d="M446.809 383.422C446.809 381.68 447.34 380.277 448.402 379.215C449.473 378.152 450.895 377.621 452.668 377.621C454.426 377.621 455.883 378.207 457.039 379.379C458.195 380.543 458.773 382.438 458.773 385.062V385.531C458.773 388.391 457.949 390.688 456.301 392.422C454.66 394.148 452.285 395.027 449.176 395.059H448.777V392.562H449.141C451.211 392.562 452.828 392 453.992 390.875C455.156 389.742 455.738 387.934 455.738 385.449L455.645 384.945C455.645 383.117 455.375 381.836 454.836 381.102C454.305 380.359 453.578 379.988 452.656 379.988C451.781 379.988 451.117 380.273 450.664 380.844C450.211 381.406 449.984 382.266 449.984 383.422C449.984 384.5 450.211 385.328 450.664 385.906C451.117 386.477 451.789 386.762 452.68 386.762C453.516 386.762 454.227 386.473 454.812 385.895C455.398 385.316 455.691 384.531 455.691 383.539H456.594C456.594 385.094 456.18 386.395 455.352 387.441C454.523 388.488 453.363 389.012 451.871 389.012C450.316 389.012 449.082 388.508 448.168 387.5C447.262 386.484 446.809 385.125 446.809 383.422ZM460.426 389.293V383.645C460.426 381.809 460.918 380.344 461.902 379.25C462.895 378.156 464.301 377.609 466.121 377.609C467.934 377.609 469.336 378.156 470.328 379.25C471.328 380.336 471.828 381.801 471.828 383.645V389.293C471.828 391.145 471.324 392.613 470.316 393.699C469.309 394.785 467.91 395.328 466.121 395.328C464.301 395.32 462.895 394.773 461.902 393.688C460.918 392.602 460.426 391.137 460.426 389.293ZM463.648 389.633C463.648 390.625 463.844 391.422 464.234 392.023C464.633 392.625 465.266 392.926 466.133 392.926C466.992 392.926 467.621 392.625 468.02 392.023C468.418 391.422 468.617 390.625 468.617 389.633V383.328C468.617 382.328 468.418 381.527 468.02 380.926C467.621 380.324 466.992 380.023 466.133 380.023C465.266 380.023 464.633 380.324 464.234 380.926C463.844 381.527 463.648 382.328 463.648 383.328V389.633ZM473.469 383.293V381.465C473.469 380.27 473.809 379.332 474.488 378.652C475.176 377.965 476.133 377.621 477.359 377.621C478.594 377.621 479.551 377.969 480.23 378.664C480.918 379.352 481.262 380.285 481.262 381.465V383.293C481.262 384.496 480.918 385.445 480.23 386.141C479.551 386.836 478.594 387.184 477.359 387.184C476.133 387.184 475.176 386.836 474.488 386.141C473.809 385.445 473.469 384.496 473.469 383.293ZM475.906 383.375C475.906 383.945 476.016 384.398 476.234 384.734C476.453 385.062 476.828 385.227 477.359 385.227C477.891 385.227 478.266 385.062 478.484 384.734C478.711 384.398 478.824 383.945 478.824 383.375V381.43C478.824 380.867 478.715 380.418 478.496 380.082C478.277 379.746 477.898 379.578 477.359 379.578C476.828 379.578 476.453 379.746 476.234 380.082C476.016 380.418 475.906 380.867 475.906 381.43V383.375ZM489.43 378.477L479.223 395.48L477.383 394.332L487.566 377.375L489.43 378.477ZM485.492 391.414V389.586C485.492 388.391 485.832 387.453 486.512 386.773C487.199 386.086 488.156 385.742 489.383 385.742C490.617 385.742 491.574 386.09 492.254 386.785C492.941 387.473 493.285 388.406 493.285 389.586V391.414C493.285 392.617 492.941 393.566 492.254 394.262C491.574 394.957 490.617 395.305 489.383 395.305C488.156 395.305 487.199 394.957 486.512 394.262C485.832 393.566 485.492 392.617 485.492 391.414ZM487.93 391.496C487.93 392.066 488.039 392.52 488.258 392.855C488.477 393.184 488.852 393.348 489.383 393.348C489.914 393.348 490.289 393.184 490.508 392.855C490.734 392.52 490.848 392.066 490.848 391.496V389.551C490.848 388.988 490.738 388.539 490.52 388.203C490.301 387.867 489.922 387.699 489.383 387.699C488.852 387.699 488.477 387.867 488.258 388.203C488.039 388.539 487.93 388.988 487.93 389.551V391.496Z" fill="#393939"/>
<defs>
<clipPath id="clip0_1794_2543">
<rect width="48" height="48" fill="white" transform="translate(60 249)"/>
</clipPath>
<clipPath id="clip1_1794_2543">
<rect width="48" height="48" fill="white" transform="translate(60 363)"/>
</clipPath>
</defs>
</svg>
