<svg width="207" height="60" viewBox="0 0 207 60" fill="none" xmlns="http://www.w3.org/2000/svg">
<g clip-path="url(#clip0_3503_1180)">
<path d="M97.2112 13.3268C97.5349 12.8867 97.9176 12.6667 98.359 12.6667C98.6827 12.6667 98.9623 12.7987 99.1978 13.0627C99.4626 13.3268 99.5951 13.6202 99.5951 13.943C99.5951 14.2658 99.4921 14.5446 99.2861 14.7793C98.1971 16.1876 96.5638 17.156 94.3859 17.6842C92.2374 18.183 89.5886 18.4618 86.4396 18.5204C84.7032 22.5696 82.9226 26.9708 81.0979 31.7243C79.3026 36.4777 77.8016 40.8936 76.595 44.9722C76.389 45.735 76.0506 46.3072 75.5797 46.6886C75.1088 47.0994 74.5938 47.3048 74.0346 47.3048C73.446 47.3048 72.9456 47.0994 72.5336 46.6886C72.1216 46.2779 71.9155 45.7204 71.9155 45.0162C71.9155 44.7228 71.9597 44.4293 72.048 44.1359C72.8132 41.055 74.1082 37.0792 75.9329 32.2084C77.787 27.3083 79.6411 22.731 81.4952 18.4764L79.2438 18.4324C77.7134 18.3737 76.6392 18.3443 76.0211 18.3443C73.8433 18.3443 72.1657 18.5938 70.9885 19.0926C69.8113 19.562 68.9872 20.5157 68.5163 21.9534C68.3104 22.5402 67.9424 22.8336 67.4126 22.8336C67.0595 22.8336 66.7357 22.7016 66.4415 22.4375C66.1471 22.1735 66 21.8653 66 21.5132C66 21.4546 66.0294 21.3079 66.0883 21.0731C66.7652 18.9018 67.913 17.4494 69.5317 16.7159C71.1798 15.9823 73.3723 15.6155 76.1094 15.6155C76.904 15.6155 78.1548 15.6449 79.8618 15.7036C81.0979 15.7622 82.025 15.7916 82.643 15.7916H82.8637C83.2464 15.4102 83.7908 15.2194 84.4972 15.2194C85.3212 15.2194 85.9834 15.4248 86.4838 15.8356C89.368 15.8356 91.6782 15.6742 93.4146 15.3515C95.1511 15.0287 96.4166 14.3538 97.2112 13.3268Z" fill="#222222"/>
<path d="M94.9626 47.613C93.697 47.613 92.6523 47.2608 91.8283 46.5566C91.0336 45.8818 90.6363 44.9135 90.6363 43.6518C90.6363 42.0379 91.1218 39.94 92.0931 37.3579C93.0643 34.7759 94.1974 32.3257 95.4924 30.0078C94.6977 30.3305 93.8443 30.6386 92.9319 30.932C92.0196 31.1962 91.3574 31.3722 90.9453 31.4602C90.6805 32.135 90.2978 33.03 89.7975 34.1449C89.2972 35.26 88.532 36.9325 87.5019 39.1625L87.0604 40.0867C86.7073 40.9084 86.2216 41.3191 85.6036 41.3191C85.4271 41.3191 85.2505 41.2751 85.074 41.187C84.6913 40.9817 84.5 40.6442 84.5 40.1748C84.5 39.8226 84.603 39.4559 84.809 39.0744C85.7214 37.2259 86.722 34.8785 87.8109 32.0323L88.2966 30.888C86.9133 29.8318 86.2216 28.6727 86.2216 27.411C86.2216 26.5895 86.3983 25.8559 86.7514 25.2103C87.134 24.5354 87.6049 24.022 88.1641 23.6699C88.7233 23.2884 89.2825 23.0977 89.8417 23.0977C90.4892 23.0977 91.0189 23.3618 91.431 23.89C91.8724 24.3888 92.0931 25.1516 92.0931 26.1786C92.0931 26.7948 91.9754 27.6017 91.74 28.5994C91.946 28.5407 92.4315 28.3793 93.1968 28.1152C94.4917 27.6751 95.5365 27.3523 96.3312 27.1469C97.1552 26.9122 97.8763 26.7948 98.4943 26.7948C99.23 26.7948 99.7892 27.0149 100.172 27.455C100.584 27.8952 100.79 28.4087 100.79 28.9955C100.79 29.4062 100.628 30.0078 100.304 30.8C99.9805 31.5923 99.495 32.6339 98.8474 33.925C97.788 36.0962 96.9492 37.9741 96.3312 39.5586C95.7426 41.1137 95.4482 42.4781 95.4482 43.6518C95.4482 44.092 95.4924 44.4 95.5807 44.576C95.6984 44.7521 95.8603 44.8402 96.0662 44.8402C96.9786 44.8402 97.8321 44.3854 98.6268 43.4758C99.4508 42.5662 100.142 41.5685 100.702 40.4828C101.261 39.3678 102.041 37.7248 103.041 35.5534C103.247 35.1133 103.483 34.7465 103.748 34.4531C104.012 34.1303 104.395 33.9689 104.895 33.9689H104.94C105.499 33.9689 105.778 34.233 105.778 34.7611C105.778 35.172 105.646 35.7148 105.381 36.3896C104.116 39.7639 102.673 42.4781 101.055 44.532C99.4654 46.5859 97.4348 47.613 94.9626 47.613Z" fill="#222222"/>
<path d="M111.781 24.9463C111.104 24.9463 110.574 24.7409 110.192 24.3301C109.809 23.9194 109.618 23.3618 109.618 22.6576C109.618 21.9534 109.794 21.2639 110.148 20.589C110.53 19.8848 111.016 19.3273 111.604 18.9166C112.193 18.4764 112.782 18.2563 113.37 18.2563C113.988 18.2563 114.503 18.5057 114.915 19.0045C115.327 19.474 115.533 20.0609 115.533 20.765C115.533 21.3812 115.342 22.0267 114.959 22.7016C114.577 23.3471 114.091 23.89 113.503 24.3301C112.914 24.7409 112.34 24.9463 111.781 24.9463ZM105.203 47.613C103.938 47.613 102.878 47.2608 102.025 46.5566C101.201 45.8525 100.789 44.8841 100.789 43.6518C100.789 41.7739 101.377 39.3385 102.554 36.3456C103.732 33.3528 105.027 30.8 106.439 28.6873C106.763 28.2179 107.19 27.8658 107.72 27.6311C108.249 27.367 108.779 27.235 109.309 27.235C109.897 27.235 110.383 27.367 110.766 27.6311C111.178 27.8658 111.384 28.2032 111.384 28.6434C111.384 28.9955 111.281 29.3329 111.075 29.6556C109.809 31.6802 108.573 34.1303 107.366 37.0058C106.189 39.852 105.601 42.0673 105.601 43.6518C105.601 44.092 105.645 44.4 105.733 44.576C105.851 44.7521 106.013 44.8402 106.219 44.8402C106.984 44.8402 107.72 44.4881 108.426 43.7838C109.132 43.0502 109.75 42.1993 110.28 41.231C110.839 40.2628 111.545 38.913 112.399 37.1819L113.194 35.5093L113.679 34.409C113.826 34.1743 114.003 33.9836 114.209 33.8369C114.444 33.6608 114.695 33.5728 114.959 33.5728C115.283 33.5728 115.548 33.6901 115.754 33.925C115.99 34.1303 116.107 34.409 116.107 34.7611C116.107 34.9079 116.063 35.1133 115.975 35.3773C115.886 35.612 115.725 35.9495 115.489 36.3896L114.915 37.666C113.915 39.8666 113.002 41.6566 112.178 43.0356C111.354 44.4146 110.383 45.5003 109.265 46.2925C108.029 47.1728 106.675 47.613 105.203 47.613Z" fill="#222222"/>
<path d="M116.66 47.613C115.247 47.613 114.07 47.0994 113.128 46.0724C112.216 45.0455 111.76 43.6518 111.76 41.8913C111.76 39.6613 112.245 37.3873 113.217 35.0693C114.217 32.7218 115.556 30.7853 117.234 29.2596C118.911 27.7044 120.751 26.9268 122.752 26.9268C123.547 26.9268 124.267 27.0736 124.915 27.367C125.592 27.6311 126.122 28.0272 126.504 28.5553C127.211 29.5236 127.564 30.844 127.564 32.5165C127.564 33.2794 127.476 34.0862 127.3 34.9372C128.094 35.0252 128.844 34.8492 129.551 34.409C130.256 33.9689 130.801 33.3088 131.184 32.4284V32.3845C131.626 31.5336 132.199 31.1521 132.906 31.2401C133.494 31.3574 133.788 31.6949 133.788 32.2524C133.788 32.6339 133.67 33.0593 133.435 33.5288C132.876 34.8198 132.082 35.8028 131.052 36.4777C130.051 37.1525 128.874 37.4899 127.52 37.4899C127.284 37.4899 126.931 37.4606 126.461 37.402C124.812 41.4218 122.958 44.268 120.898 45.9404C119.515 47.0555 118.102 47.613 116.66 47.613ZM117.631 44.7521C118.543 44.7521 119.603 43.9598 120.81 42.3754C122.016 40.7909 123.076 38.8104 123.988 36.4337C123.193 35.8762 122.531 35.0839 122.002 34.057C121.501 33.03 121.222 31.9884 121.163 30.932C120.103 32.1644 119.044 33.8515 117.984 35.9935C116.954 38.1061 116.439 40.028 116.439 41.7592C116.439 42.6395 116.557 43.3584 116.792 43.9158C117.028 44.4733 117.307 44.7521 117.631 44.7521Z" fill="#222222"/>
<path d="M135.769 47.569C133.532 47.569 131.782 46.9087 130.516 45.5884C129.25 44.2386 128.617 42.5662 128.617 40.5709C128.617 39.0157 129.014 37.446 129.809 35.8615C130.074 35.2746 130.471 34.9812 131.002 34.9812C131.324 34.9812 131.604 35.0986 131.84 35.3333C132.076 35.5681 132.193 35.8762 132.193 36.2576C132.193 36.4924 132.12 36.7858 131.972 37.1378C131.472 38.3116 131.222 39.4705 131.222 40.6148C131.222 41.8472 131.516 42.8596 132.104 43.6518C132.722 44.4146 133.62 44.7961 134.797 44.7961C135.739 44.7961 136.475 44.532 137.005 44.0039C137.534 43.4464 137.8 42.6835 137.8 41.7152C137.83 41.099 137.711 40.5122 137.447 39.9547C137.212 39.3678 136.711 38.4582 135.946 37.2259L135.107 35.9054C134.636 35.1426 134.209 34.3063 133.826 33.3967C133.474 32.4871 133.297 31.6802 133.297 30.9761C133.297 29.5969 133.577 28.4233 134.136 27.455C134.695 26.4574 135.415 25.7238 136.298 25.2544C137.182 24.7555 138.109 24.5062 139.08 24.5062C140.434 24.5062 141.582 24.961 142.523 25.8706C143.495 26.7508 143.98 27.9685 143.98 29.5236C143.98 30.0517 143.906 30.6533 143.759 31.3282C143.612 32.003 143.436 32.5752 143.23 33.0446C143.112 33.3088 142.936 33.5141 142.7 33.6608C142.494 33.8076 142.273 33.8809 142.038 33.8809C141.714 33.8809 141.42 33.7782 141.155 33.5728C140.89 33.338 140.758 33.0446 140.758 32.6926C140.758 32.5752 140.786 32.4284 140.845 32.2524C140.904 32.0764 141.007 31.7389 141.155 31.2401C141.302 30.712 141.376 30.2866 141.376 29.9638C141.376 29.0542 141.272 28.4087 141.066 28.0272C140.89 27.6164 140.61 27.411 140.227 27.411C139.609 27.411 139.094 27.7484 138.683 28.4233C138.27 29.0982 138.065 29.9491 138.065 30.9761C138.065 31.4455 138.241 32.1058 138.594 32.9567C138.977 33.8076 139.447 34.6585 140.006 35.5093C140.831 36.7711 141.463 37.9008 141.905 38.8984C142.376 39.8666 142.612 40.879 142.612 41.9353C142.612 43.6958 141.935 45.0749 140.581 46.0724C139.228 47.0701 137.623 47.569 135.769 47.569Z" fill="#222222"/>
<path d="M160.201 28.1152C160.672 28.7021 160.908 29.553 160.908 30.6679C160.908 33.1033 159.715 36.7858 157.332 41.7152C156.479 43.4758 155.478 44.8548 154.33 45.8524C153.182 46.8208 152.02 47.3048 150.842 47.3048C150.224 47.3048 149.635 47.1581 149.076 46.8647C148.164 46.3366 147.428 45.5737 146.869 44.576C144.926 48.9186 143.956 52.337 143.956 54.8311C143.956 55.7994 143.72 56.5622 143.249 57.1198C142.778 57.7066 142.219 58 141.571 58C140.924 58 140.365 57.6773 139.894 57.0317C139.394 56.4155 139.144 55.5353 139.144 54.391C139.144 52.7478 139.571 50.7085 140.424 48.2731C141.277 45.8671 142.454 43.0649 143.956 39.8666C145.781 36.1403 146.693 33.0446 146.693 30.58C146.693 29.993 146.634 29.4796 146.516 29.0395C146.428 28.5994 146.383 28.3206 146.383 28.2032C146.383 27.5578 146.575 27.0736 146.958 26.7508C147.37 26.3987 147.856 26.2226 148.415 26.2226C149.003 26.2226 149.562 26.384 150.092 26.7068C150.652 27.0295 151.004 27.4404 151.151 27.9391C151.416 28.8194 151.549 29.7437 151.549 30.712C151.549 31.4749 151.446 32.3992 151.24 33.4848C152.269 32.2524 153.3 31.1521 154.33 30.1838C155.272 29.2742 156.082 28.57 156.758 28.0712C157.435 27.5724 158.082 27.3229 158.7 27.3229C159.289 27.3229 159.79 27.587 160.201 28.1152ZM157.42 35.0252C157.597 34.409 157.685 33.8663 157.685 33.3967C157.685 32.9273 157.597 32.5606 157.42 32.2964C157.273 32.0323 157.052 31.9003 156.758 31.9003C156.287 31.9003 155.699 32.267 154.992 33.0006C154.05 33.9689 153.167 34.9666 152.344 35.9935C151.519 37.0205 150.474 38.3702 149.209 40.0427C148.855 40.5122 148.679 41.0844 148.679 41.7592C148.679 42.2874 148.796 42.8009 149.033 43.2997C149.268 43.7984 149.592 44.1799 150.004 44.444C150.298 44.6494 150.622 44.7521 150.974 44.7521C151.592 44.7521 152.255 44.4 152.962 43.6958C153.667 42.9623 154.388 41.9206 155.124 40.5709C156.066 38.8397 156.832 36.9912 157.42 35.0252Z" fill="#222222"/>
<path d="M170.887 24.9463C170.209 24.9463 169.68 24.7409 169.297 24.3301C168.914 23.9194 168.724 23.3618 168.724 22.6576C168.724 21.9534 168.9 21.2639 169.253 20.589C169.636 19.8848 170.122 19.3273 170.71 18.9166C171.299 18.4764 171.887 18.2563 172.476 18.2563C173.094 18.2563 173.609 18.5057 174.022 19.0045C174.433 19.474 174.64 20.0609 174.64 20.765C174.64 21.3812 174.448 22.0267 174.065 22.7016C173.683 23.3471 173.197 23.89 172.608 24.3301C172.02 24.7409 171.446 24.9463 170.887 24.9463ZM164.309 47.613C163.044 47.613 161.984 47.2608 161.13 46.5566C160.307 45.8525 159.894 44.8841 159.894 43.6518C159.894 41.7739 160.483 39.3385 161.66 36.3456C162.838 33.3528 164.132 30.8 165.545 28.6873C165.869 28.2179 166.296 27.8658 166.825 27.6311C167.356 27.367 167.885 27.235 168.414 27.235C169.003 27.235 169.489 27.367 169.871 27.6311C170.284 27.8658 170.489 28.2032 170.489 28.6434C170.489 28.9955 170.387 29.3329 170.18 29.6556C168.914 31.6802 167.678 34.1303 166.472 37.0058C165.295 39.852 164.706 42.0673 164.706 43.6518C164.706 44.092 164.75 44.4 164.839 44.576C164.957 44.7521 165.119 44.8402 165.324 44.8402C166.09 44.8402 166.825 44.4881 167.532 43.7838C168.238 43.0502 168.856 42.1993 169.386 41.231C169.945 40.2628 170.651 38.913 171.505 37.1819L172.3 35.5093L172.784 34.409C172.932 34.1743 173.108 33.9836 173.315 33.8369C173.55 33.6608 173.801 33.5728 174.065 33.5728C174.389 33.5728 174.654 33.6901 174.86 33.925C175.096 34.1303 175.213 34.409 175.213 34.7611C175.213 34.9079 175.169 35.1133 175.08 35.3773C174.992 35.612 174.83 35.9495 174.595 36.3896L174.022 37.666C173.021 39.8666 172.108 41.6566 171.284 43.0356C170.46 44.4146 169.489 45.5003 168.371 46.2925C167.135 47.1728 165.78 47.613 164.309 47.613Z" fill="#222222"/>
<path d="M180.754 47.613C179.489 47.613 178.444 47.2608 177.619 46.5566C176.825 45.8818 176.428 44.9135 176.428 43.6518C176.428 42.0379 176.914 39.94 177.884 37.3579C178.855 34.7759 179.989 32.3257 181.284 30.0078C180.49 30.3305 179.635 30.6386 178.723 30.932C177.811 31.1962 177.149 31.3722 176.737 31.4602C176.472 32.135 176.089 33.03 175.589 34.1449C175.088 35.26 174.324 36.9325 173.293 39.1625L172.852 40.0867C172.499 40.9084 172.013 41.3191 171.395 41.3191C171.218 41.3191 171.042 41.2751 170.866 41.187C170.483 40.9817 170.292 40.6442 170.292 40.1748C170.292 39.8226 170.394 39.4559 170.6 39.0744C171.512 37.2259 172.513 34.8785 173.603 32.0323L174.088 30.888C172.705 29.8318 172.013 28.6727 172.013 27.411C172.013 26.5895 172.189 25.8559 172.543 25.2103C172.926 24.5354 173.396 24.022 173.956 23.6699C174.515 23.2884 175.074 23.0977 175.633 23.0977C176.28 23.0977 176.81 23.3618 177.222 23.89C177.664 24.3888 177.884 25.1516 177.884 26.1786C177.884 26.7948 177.767 27.6017 177.532 28.5994C177.737 28.5407 178.223 28.3793 178.988 28.1152C180.283 27.6751 181.328 27.3523 182.123 27.1469C182.947 26.9122 183.667 26.7948 184.285 26.7948C185.022 26.7948 185.581 27.0149 185.963 27.455C186.376 27.8952 186.581 28.4087 186.581 28.9955C186.581 29.4062 186.42 30.0078 186.096 30.8C185.772 31.5923 185.286 32.6339 184.639 33.925C183.58 36.0962 182.741 37.9741 182.123 39.5586C181.534 41.1137 181.24 42.4781 181.24 43.6518C181.24 44.092 181.284 44.4 181.372 44.576C181.489 44.7521 181.651 44.8402 181.858 44.8402C182.77 44.8402 183.624 44.3854 184.418 43.4758C185.242 42.5662 185.934 41.5685 186.493 40.4828C187.052 39.3678 187.832 37.7248 188.833 35.5534C189.038 35.1133 189.274 34.7465 189.539 34.4531C189.804 34.1303 190.187 33.9689 190.687 33.9689H190.732C191.29 33.9689 191.569 34.233 191.569 34.7611C191.569 35.172 191.437 35.7148 191.172 36.3896C189.907 39.7639 188.465 42.4781 186.846 44.532C185.257 46.5859 183.226 47.613 180.754 47.613Z" fill="#222222"/>
<path d="M205.696 35.2013C206.343 35.2013 206.667 35.5094 206.667 36.1255C206.667 36.5657 206.49 37.2112 206.137 38.0621C205.107 40.3801 204.136 42.1993 203.224 43.5197C202.341 44.8402 201.237 45.8525 199.913 46.5566C198.588 47.2608 196.911 47.613 194.88 47.613C193.555 47.613 192.319 47.3489 191.172 46.8208C190.054 46.3219 189.156 45.5884 188.478 44.6201C187.831 43.6518 187.507 42.5075 187.507 41.187C187.507 39.1331 188.022 36.9912 189.053 34.7611C190.113 32.5312 191.481 30.6679 193.158 29.1715C194.865 27.6751 196.661 26.9268 198.544 26.9268C200.134 26.9268 201.34 27.279 202.164 27.9832C203.017 28.6873 203.445 29.6117 203.445 30.756C203.445 32.9567 202.385 35.1133 200.266 37.2259C198.147 39.3385 195.586 41.0404 192.585 42.3314C192.82 43.0943 193.247 43.6958 193.865 44.1359C194.483 44.5468 195.16 44.7521 195.895 44.7521C198.985 44.7521 201.649 42.17 203.886 37.0058C204.15 36.3896 204.401 35.9348 204.636 35.6414C204.901 35.348 205.254 35.2013 205.696 35.2013ZM200.31 31.2401C200.31 30.9174 200.193 30.6679 199.956 30.4919C199.721 30.2866 199.413 30.1838 199.03 30.1838C198.558 30.1838 198.043 30.3305 197.484 30.624C196.955 30.9174 196.455 31.3574 195.983 31.9444C195.247 32.9419 194.571 34.1156 193.953 35.4654C193.335 36.815 192.893 38.1061 192.629 39.3385C194.718 38.2529 196.513 36.9912 198.015 35.5534C199.545 34.0862 200.31 32.6485 200.31 31.2401Z" fill="#222222"/>
<path d="M60 30C60 53.58 53.58 60 30 60C6.41996 60 0 53.58 0 30C0 6.41996 6.41996 0 30 0C53.58 0 60 6.41996 60 30Z" fill="#6A39FF"/>
<path d="M25.7 47.8487C25.7 47.4507 25.7 47.2018 25.7 47.0028C25.7 42.3755 25.7 26.304 25.7 21.6767C25.7 21.1294 25.5507 20.9303 24.9536 20.9303C21.5702 20.9801 18.1867 20.9303 14.8033 20.9303C14.6042 20.9303 14.3554 20.9303 14.1067 20.9303C14.0071 19.5869 14.3554 18.3928 15.0022 17.298C16.4452 14.7107 18.6843 13.3175 21.6697 13.2678C27.3419 13.218 32.9146 13.218 38.5371 13.218C38.6367 13.218 39.6816 13.218 39.8806 13.218C39.383 13.4668 38.9353 13.6658 38.4874 13.8648C35.6512 15.4571 33.5118 17.9946 33.4123 21.1294C33.3625 23.2688 33.4123 36.8525 33.4123 38.9422C33.4123 42.5745 30.9741 46.2067 27.6902 47.3511C27.0932 47.5999 26.4463 47.6994 25.7 47.8487Z" fill="white"/>
<path d="M35.5508 20.6815C35.5508 16.5595 38.8923 13.218 43.0143 13.218H44.7861C45.4564 13.218 45.9997 13.7614 45.9997 14.4316V15.5749C45.9997 18.3952 43.7134 20.6815 40.8931 20.6815H35.5508Z" fill="#C93667"/>
</g>
<defs>
<clipPath id="clip0_3503_1180">
<rect width="206.76" height="60" fill="white"/>
</clipPath>
</defs>
</svg>
