<svg width="40" height="40" viewBox="0 0 40 40" fill="none" xmlns="http://www.w3.org/2000/svg">
<path d="M32.3229 32.3229H27.1371V24.2C27.1371 22.2633 27.1021 19.7696 24.4392 19.7696C21.7383 19.7696 21.3242 21.8812 21.3242 24.057V32.3229H16.1383V15.6192H21.1171V17.9029H21.1871C22.2021 16.1704 24.0921 15.1321 26.0987 15.205C31.3546 15.205 32.3258 18.6612 32.3258 23.1616L32.3229 32.3199V32.3229ZM10.2875 13.3354C9.49088 13.3316 8.72794 13.0136 8.16437 12.4506C7.60079 11.8876 7.2821 11.125 7.2775 10.3283C7.2775 8.67752 8.63667 7.31836 10.2875 7.31836C11.9383 7.31836 13.2946 8.67752 13.2975 10.3283C13.2975 11.9792 11.9383 13.3354 10.2875 13.3354ZM12.8804 32.3229H7.68875V15.6192H12.8804V32.3229ZM34.9042 2.50004H5.08125C4.40502 2.49612 3.75457 2.75922 3.27123 3.23217C2.7879 3.70513 2.51075 4.34972 2.5 5.02587V34.9741C2.51075 35.6502 2.7879 36.2948 3.27123 36.7678C3.75457 37.2407 4.40502 37.5038 5.08125 37.4999H34.9071C35.5849 37.5054 36.2374 37.2432 36.723 36.7702C37.2085 36.2973 37.4877 35.6518 37.5 34.9741V5.02295C37.4877 4.34578 37.2083 3.70091 36.7226 3.22888C36.2369 2.75685 35.5843 2.49592 34.9071 2.50296L34.9042 2.50004Z" fill="#1C78D4"/>
</svg>
