<svg width="40" height="40" viewBox="0 0 40 40" fill="none" xmlns="http://www.w3.org/2000/svg">
<path d="M20.0468 19.9999C20.0468 16.318 23.0316 13.3333 26.7135 13.3333C30.3953 13.3333 33.3801 16.3181 33.3801 19.9999C33.3801 23.6818 30.3953 26.6665 26.7135 26.6665C23.0315 26.6665 20.0468 23.6818 20.0468 19.9999Z" fill="#00BCFF"/>
<path d="M6.71344 33.3334C6.71344 29.6515 9.69821 26.6667 13.3801 26.6667L16.9328 24.791L20.0467 26.6667V33.3334C20.0467 37.0153 17.062 40 13.3801 40C9.69821 40 6.71344 37.0152 6.71344 33.3334Z" fill="#00CF7F"/>
<path d="M20.0468 0L16.4192 6.30234L20.0468 13.3333H26.62C30.3019 13.3333 33.2866 10.3485 33.2866 6.66664C33.2866 2.98477 30.3018 0 26.62 0H20.0468Z" fill="#FF7361"/>
<path d="M6.61987 6.66664C6.61987 10.3485 9.60464 13.3333 13.2865 13.3333L16.823 14.6992L20.0467 13.3333V0H13.2864C9.60464 0 6.61987 2.98477 6.61987 6.66664Z" fill="#FF4D12"/>
<path d="M6.71344 20C6.71344 23.6819 9.69821 26.6666 13.3801 26.6666H20.0467V13.3333H13.3801C9.69821 13.3333 6.71344 16.3181 6.71344 20Z" fill="#B659FF"/>
</svg>
