<svg width="40" height="40" viewBox="0 0 40 40" fill="none" xmlns="http://www.w3.org/2000/svg">
<path d="M30 2.5H10C5.85786 2.5 2.5 5.85786 2.5 10V30C2.5 34.1421 5.85786 37.5 10 37.5H30C34.1421 37.5 37.5 34.1421 37.5 30V10C37.5 5.85786 34.1421 2.5 30 2.5Z" fill="url(#paint0_radial_3503_436)"/>
<path d="M30 2.5H10C5.85786 2.5 2.5 5.85786 2.5 10V30C2.5 34.1421 5.85786 37.5 10 37.5H30C34.1421 37.5 37.5 34.1421 37.5 30V10C37.5 5.85786 34.1421 2.5 30 2.5Z" fill="url(#paint1_radial_3503_436)"/>
<path d="M30 2.5H10C5.85786 2.5 2.5 5.85786 2.5 10V30C2.5 34.1421 5.85786 37.5 10 37.5H30C34.1421 37.5 37.5 34.1421 37.5 30V10C37.5 5.85786 34.1421 2.5 30 2.5Z" fill="url(#paint2_radial_3503_436)"/>
<path d="M28.75 13.125C28.75 14.1605 27.9105 15 26.875 15C25.8395 15 25 14.1605 25 13.125C25 12.0895 25.8395 11.25 26.875 11.25C27.9105 11.25 28.75 12.0895 28.75 13.125Z" fill="white"/>
<path fill-rule="evenodd" clip-rule="evenodd" d="M20 26.25C23.4517 26.25 26.25 23.4517 26.25 20C26.25 16.5482 23.4517 13.75 20 13.75C16.5482 13.75 13.75 16.5482 13.75 20C13.75 23.4517 16.5482 26.25 20 26.25ZM20 23.75C22.0711 23.75 23.75 22.0711 23.75 20C23.75 17.9289 22.0711 16.25 20 16.25C17.9289 16.25 16.25 17.9289 16.25 20C16.25 22.0711 17.9289 23.75 20 23.75Z" fill="white"/>
<path fill-rule="evenodd" clip-rule="evenodd" d="M7.5 19.5C7.5 15.2996 7.5 13.1994 8.31745 11.5951C9.0365 10.1839 10.1839 9.0365 11.5951 8.31745C13.1994 7.5 15.2996 7.5 19.5 7.5H20.5C24.7004 7.5 26.8006 7.5 28.4049 8.31745C29.8161 9.0365 30.9635 10.1839 31.6825 11.5951C32.5 13.1994 32.5 15.2996 32.5 19.5V20.5C32.5 24.7004 32.5 26.8006 31.6825 28.4049C30.9635 29.8161 29.8161 30.9635 28.4049 31.6825C26.8006 32.5 24.7004 32.5 20.5 32.5H19.5C15.2996 32.5 13.1994 32.5 11.5951 31.6825C10.1839 30.9635 9.0365 29.8161 8.31745 28.4049C7.5 26.8006 7.5 24.7004 7.5 20.5V19.5ZM19.5 10H20.5C22.6415 10 24.0971 10.002 25.2224 10.0939C26.3185 10.1834 26.879 10.3457 27.27 10.545C28.2108 11.0243 28.9756 11.7892 29.455 12.73C29.6542 13.121 29.8166 13.6815 29.9061 14.7776C29.998 15.9029 30 17.3585 30 19.5V20.5C30 22.6415 29.998 24.0971 29.9061 25.2224C29.8166 26.3185 29.6542 26.879 29.455 27.27C28.9756 28.2108 28.2108 28.9756 27.27 29.455C26.879 29.6542 26.3185 29.8166 25.2224 29.9061C24.0971 29.998 22.6415 30 20.5 30H19.5C17.3585 30 15.9029 29.998 14.7776 29.9061C13.6815 29.8166 13.121 29.6542 12.73 29.455C11.7892 28.9756 11.0243 28.2108 10.545 27.27C10.3457 26.879 10.1834 26.3185 10.0939 25.2224C10.002 24.0971 10 22.6415 10 20.5V19.5C10 17.3585 10.002 15.9029 10.0939 14.7776C10.1834 13.6815 10.3457 13.121 10.545 12.73C11.0243 11.7892 11.7892 11.0243 12.73 10.545C13.121 10.3457 13.6815 10.1834 14.7776 10.0939C15.9029 10.002 17.3585 10 19.5 10Z" fill="white"/>
<defs>
<radialGradient id="paint0_radial_3503_436" cx="0" cy="0" r="1" gradientUnits="userSpaceOnUse" gradientTransform="translate(15 28.75) rotate(-55.3758) scale(31.8995)">
<stop stop-color="#B13589"/>
<stop offset="0.79309" stop-color="#C62F94"/>
<stop offset="1" stop-color="#8A3AC8"/>
</radialGradient>
<radialGradient id="paint1_radial_3503_436" cx="0" cy="0" r="1" gradientUnits="userSpaceOnUse" gradientTransform="translate(13.75 38.75) rotate(-65.1363) scale(28.2428)">
<stop stop-color="#E0E8B7"/>
<stop offset="0.444662" stop-color="#FB8A2E"/>
<stop offset="0.71474" stop-color="#E2425C"/>
<stop offset="1" stop-color="#E2425C" stop-opacity="0"/>
</radialGradient>
<radialGradient id="paint2_radial_3503_436" cx="0" cy="0" r="1" gradientUnits="userSpaceOnUse" gradientTransform="translate(0.625001 3.75) rotate(-8.1301) scale(48.6136 10.3979)">
<stop offset="0.156701" stop-color="#406ADC"/>
<stop offset="0.467799" stop-color="#6A45BE"/>
<stop offset="1" stop-color="#6A45BE" stop-opacity="0"/>
</radialGradient>
</defs>
</svg>
