<svg width="40" height="40" viewBox="0 0 40 40" fill="none" xmlns="http://www.w3.org/2000/svg">
<g clip-path="url(#clip0_3501_760)">
<path d="M20.2841 33.9743L8.42227 27.1748C8.27831 27.089 8.18234 26.9364 8.18234 26.7648V16.2556C8.18234 16.0744 8.38388 15.96 8.53743 16.0458L22.309 23.942C22.501 24.0564 22.7409 23.9134 22.7409 23.694V18.573C22.7409 18.3727 22.6353 18.182 22.453 18.0771L5.88868 8.57878C5.74472 8.49295 5.55278 8.49295 5.40883 8.57878L3.23992 9.82805C3.09597 9.91388 3 10.0665 3 10.2381V29.7592C3 29.9309 3.09597 30.0835 3.23992 30.1693L20.2553 39.9346C20.3992 40.0204 20.5912 40.0204 20.7351 39.9346L35.025 31.7333C35.2169 31.6188 35.2169 31.3518 35.025 31.2374L30.572 28.6816C30.3896 28.5767 30.1785 28.5767 29.9962 28.6816L20.7735 33.9743C20.6296 34.0602 20.4376 34.0602 20.2937 33.9743H20.2841Z" fill="black"/>
<path d="M37.7505 9.82015L20.7351 0.064371C20.5912 -0.021457 20.3992 -0.021457 20.2553 0.064371L11.263 5.22359C11.071 5.33802 11.071 5.60504 11.263 5.71948L15.6775 8.25618C15.8599 8.36108 16.071 8.36108 16.2534 8.25618L20.2841 5.94836C20.428 5.86253 20.62 5.86253 20.7639 5.94836L32.6257 12.7478C32.7697 12.8337 32.8656 12.9863 32.8656 13.1579V23.7148C32.8656 23.915 32.9712 24.1057 33.1536 24.2106L37.5681 26.7378C37.7601 26.8522 38 26.7092 38 26.4899V10.2398C38 10.0681 37.904 9.91552 37.7601 9.82969L37.7505 9.82015Z" fill="black"/>
</g>
<defs>
<clipPath id="clip0_3501_760">
<rect width="35" height="40" fill="white" transform="translate(3)"/>
</clipPath>
</defs>
</svg>
