<svg width="40" height="40" viewBox="0 0 40 40" fill="none" xmlns="http://www.w3.org/2000/svg">
<path d="M17.8912 27.7637C18.5787 27.7949 19.2812 27.8174 19.9925 27.8174C20.7112 27.8174 21.4212 27.8024 22.1175 27.7637C21.4212 28.6637 20.7337 29.4599 20.0062 30.2187L20.0162 30.2087C19.2925 29.4587 18.5975 28.6612 17.9425 27.8312L17.8912 27.7637ZM10.7687 26.7637C12.1225 27.1074 13.7737 27.3999 15.4587 27.5799L15.6225 27.5937C16.6537 29.0099 17.6962 30.2562 18.815 31.4287L18.8012 31.4137C17.1625 33.2424 14.9512 34.5274 12.45 34.9887L12.3812 34.9987C12.3762 34.9987 12.3712 34.9987 12.3662 34.9987C12.0562 34.9987 11.7637 34.9224 11.5075 34.7874L11.5175 34.7924C10.4775 34.1987 10.0262 31.9274 10.3775 29.0087C10.4612 28.2899 10.5987 27.5337 10.7675 26.7624L10.7687 26.7637ZM29.2475 26.7474C29.395 27.3399 29.5337 28.0949 29.6325 28.8624L29.6437 28.9699C30.0025 31.8874 29.56 34.1562 28.5287 34.7624C28.2987 34.8899 28.0237 34.9649 27.7312 34.9649C27.7025 34.9649 27.6737 34.9637 27.645 34.9624H27.6487C25.0825 34.4937 22.8725 33.2174 21.2375 31.4112L21.2287 31.4012C22.3275 30.2474 23.3625 29.0037 24.3112 27.6949L24.3837 27.5899C26.2288 27.3974 27.8825 27.0999 29.4937 26.6937L29.2475 26.7462V26.7474ZM12.23 22.0824C12.5425 22.6949 12.87 23.3049 13.23 23.9174C13.5892 24.5266 13.9562 25.1216 14.3312 25.7024C13.2462 25.5437 12.1987 25.3437 11.1975 25.0999C11.4787 24.1162 11.8312 23.0974 12.2287 22.0799L12.23 22.0824ZM27.765 22.0512C28.1787 23.0774 28.53 24.1012 28.8212 25.0937C27.8212 25.3387 26.765 25.5462 25.6725 25.7024C26.0475 25.1162 26.4225 24.5124 26.7738 23.8937C27.125 23.2849 27.4538 22.6624 27.7675 22.0499L27.765 22.0512ZM9.52375 15.3649C10.0687 17.2124 10.6537 18.7574 11.335 20.2474L11.2412 20.0199C10.6587 21.2762 10.0825 22.8124 9.61 24.3937L9.545 24.6499C8.6625 24.3787 7.9525 24.1124 7.26125 23.8137L7.405 23.8687C4.7 22.7174 2.95 21.2037 2.95 20.0037C2.95 18.8037 4.7 17.2824 7.405 16.1362C8.06125 15.8549 8.78125 15.6012 9.52375 15.3649ZM30.4475 15.3587C31.2037 15.5924 31.9225 15.8537 32.595 16.1362C35.3 17.2924 37.05 18.8037 37.05 20.0037C37.0425 21.2037 35.2925 22.7212 32.5875 23.8699C31.9312 24.1512 31.2125 24.4037 30.4713 24.6399C29.9213 22.7862 29.3363 21.2424 28.6575 19.7499L28.7525 19.9849C29.3325 18.7299 29.91 17.1937 30.3813 15.6124L30.4475 15.3549V15.3587ZM25.6625 14.3049C26.7488 14.4662 27.795 14.6637 28.7962 14.9099C28.515 15.8974 28.1637 16.9124 27.765 17.9299C27.4525 17.3212 27.125 16.7074 26.765 16.0962C26.4137 15.4837 26.0387 14.8874 25.6637 14.3062L25.6625 14.3049ZM14.3225 14.3049C13.9475 14.8937 13.5725 15.4962 13.2225 16.1174C12.8712 16.7262 12.5425 17.3387 12.23 17.9512C11.8162 16.9262 11.465 15.9049 11.1737 14.9099C12.1737 14.6762 13.2275 14.4674 14.3212 14.3074L14.3225 14.3049ZM20 13.9074C21.1562 13.9074 22.3075 13.9599 23.44 14.0524C24.0742 14.9616 24.69 15.9299 25.2875 16.9574C25.8683 17.9574 26.3983 18.9708 26.8775 19.9974C26.3962 21.0212 25.8687 22.0437 25.295 23.0437C24.7013 24.0749 24.0875 25.0562 23.4512 25.9649C22.3137 26.0637 21.1612 26.1174 19.9987 26.1174C18.8425 26.1174 17.6912 26.0624 16.5587 25.9724C15.925 25.0637 15.3062 24.0912 14.7112 23.0674C14.1304 22.0674 13.6004 21.0541 13.1212 20.0274C13.595 19.0012 14.13 17.9762 14.7037 16.9749C15.2975 15.9437 15.9112 14.9662 16.5475 14.0574C17.685 13.9574 18.8375 13.9049 20 13.9049V13.9074ZM19.9762 9.80618C20.7012 10.5562 21.3962 11.3524 22.05 12.1824L22.1 12.2487C21.4125 12.2174 20.71 12.1962 19.9987 12.1962C19.28 12.1962 18.57 12.2112 17.8737 12.2487C18.5687 11.3487 19.2562 10.5524 19.985 9.79368L19.975 9.80368L19.9762 9.80618ZM12.35 5.04118C14.9162 5.51118 17.125 6.78743 18.7612 8.59243L18.77 8.60243C17.6712 9.75743 16.6362 11.0012 15.6875 12.3124L15.615 12.4174C13.7712 12.6087 12.1175 12.9037 10.5075 13.3099L10.7525 13.2574C10.5775 12.4924 10.4475 11.7512 10.3562 11.0399C9.9975 8.12243 10.44 5.85368 11.4712 5.24993C11.7287 5.12868 12.03 5.05368 12.3475 5.04368H12.3512L12.35 5.04118ZM27.6125 5.00993V5.01993C27.6287 5.01993 27.6475 5.01868 27.6675 5.01868C27.9663 5.01868 28.2475 5.09243 28.495 5.22243L28.485 5.21743C29.525 5.81368 29.9762 8.08368 29.625 11.0037C29.5413 11.7224 29.4037 12.4799 29.235 13.2524C27.8787 12.9049 26.2275 12.6112 24.5425 12.4324L24.3825 12.4187C23.35 11.0012 22.3075 9.75493 21.1887 8.58118L21.2037 8.59618C22.8425 6.77118 25.05 5.48618 27.5462 5.02243L27.6162 5.01118L27.6125 5.00993ZM27.62 3.30743C24.5675 3.77118 21.925 5.25368 19.995 7.39243L19.985 7.40368C18.0412 5.26618 15.3987 3.79368 12.4212 3.34743L12.3512 3.33868C12.335 3.33868 12.315 3.33868 12.295 3.33868C11.6812 3.33868 11.105 3.49993 10.6062 3.78243L10.6237 3.77368C8.47625 5.01243 7.995 8.87243 9.10375 13.7162C4.34875 15.1849 1.25625 17.5324 1.25625 20.0062C1.25625 22.4899 4.365 24.8437 9.13375 26.3012C8.03375 31.1637 8.525 35.0299 10.6775 36.2674C11.15 36.5387 11.7175 36.6974 12.3212 36.6974C12.3487 36.6974 12.3762 36.6974 12.4025 36.6962H12.3987C15.4512 36.2324 18.0937 34.7487 20.0237 32.6087L20.0337 32.5974C21.9775 34.7362 24.62 36.2087 27.5975 36.6549L27.6675 36.6637C27.6863 36.6637 27.71 36.6637 27.7325 36.6637C28.3425 36.6637 28.9163 36.5037 29.4125 36.2249L29.395 36.2337C31.5413 34.9962 32.0238 31.1362 30.915 26.2912C35.6525 24.8349 38.745 22.4824 38.745 20.0049C38.745 17.5212 35.6362 15.1674 30.8675 13.7062C31.9675 8.84868 31.4762 4.97868 29.3237 3.73993C28.8462 3.46618 28.2738 3.30493 27.6637 3.30493C27.6475 3.30493 27.6312 3.30493 27.615 3.30493H27.6175L27.62 3.30743ZM23.4837 20.0062C23.4837 21.9349 21.92 23.4987 19.9912 23.4987C18.0625 23.4987 16.4987 21.9349 16.4987 20.0062C16.4987 18.0774 18.0625 16.5137 19.9912 16.5137C20.9562 16.5137 21.8287 16.9049 22.4613 17.5362C23.0938 18.1687 23.4837 19.0412 23.4837 20.0062Z" fill="#087EA4"/>
</svg>
