<svg width="40" height="40" viewBox="0 0 40 40" fill="none" xmlns="http://www.w3.org/2000/svg">
<path d="M33.2683 7.70231C33.2406 7.50035 33.0637 7.38863 32.9179 7.37645C32.772 7.36426 29.9247 7.32098 29.9247 7.32098C29.9247 7.32098 27.5434 5.00824 27.3081 4.77285C27.0729 4.53746 26.6134 4.60887 26.435 4.66137L25.2384 5.03184C25.1133 4.62543 24.9287 4.12629 24.6658 3.62473C23.8178 2.00723 22.5765 1.15106 21.0761 1.14887H21.071C20.967 1.14887 20.8634 1.15863 20.7596 1.16809C20.7159 1.11476 20.6707 1.06273 20.624 1.01207C19.9708 0.312931 19.1319 -0.0276943 18.128 0.00175878C16.1898 0.0573057 14.2607 1.45676 12.6959 3.94207C11.5944 5.69129 10.7576 7.88871 10.5197 9.58942C8.29484 10.2784 6.7382 10.7605 6.70452 10.7711C5.58148 11.1235 5.54617 11.1588 5.3989 12.2168C5.28742 13.0179 2.34921 35.7411 2.34921 35.7411L26.9769 39.9999L37.6506 37.3468C37.6506 37.3468 33.2959 7.90426 33.2683 7.70231ZM11.8994 9.16207C12.5653 6.04832 15.1744 1.37699 18.1652 1.29098C18.6202 1.28145 19.0034 1.38129 19.3307 1.59668C18.8073 1.86848 18.3009 2.2591 17.826 2.76848C16.5951 4.08895 15.6522 6.13926 15.2762 8.11637L11.8994 9.16207ZM20.8051 6.40441L16.6935 7.67754C17.0913 6.15582 17.8443 4.64074 18.7696 3.64817C19.1138 3.27895 19.5954 2.86691 20.1655 2.63168C20.7019 3.74942 20.8181 5.33395 20.8051 6.40441ZM22.0934 6.00551C22.0791 5.02418 21.9619 3.65926 21.5048 2.47934C22.9752 2.75793 23.6992 4.42168 24.0048 5.41371L22.0934 6.00551Z" fill="#95BF47"/>
<path d="M32.9179 7.37655C32.772 7.36437 29.9247 7.32108 29.9247 7.32108C29.9247 7.32108 27.5433 5.00835 27.3081 4.77296C27.2204 4.68515 27.1014 4.64022 26.9775 4.62085L26.9781 39.9998L37.6506 37.3469C37.6506 37.3469 33.2959 7.90437 33.2683 7.70241C33.2406 7.50046 33.0637 7.38874 32.9179 7.37655Z" fill="#5E8E3E"/>
<path d="M21.0619 12.8646L19.8221 17.5021C19.8221 17.5021 18.4393 16.8725 16.7998 16.976C14.396 17.1278 14.3705 18.6441 14.3944 19.0241C14.5254 21.0982 19.9818 21.5514 20.2885 26.4094C20.5298 30.2314 18.2612 32.8458 14.9924 33.0522C11.0698 33.2999 8.90991 30.9853 8.90991 30.9853L9.74108 27.4489C9.74108 27.4489 11.9148 29.0889 13.6548 28.9791C14.7913 28.9073 15.1974 27.9829 15.1562 27.3292C14.9853 24.6236 10.5422 24.7829 10.2615 20.3374C10.0252 16.5958 12.4821 12.8054 17.9033 12.4631C19.9922 12.3313 21.0619 12.8646 21.0619 12.8646Z" fill="white"/>
</svg>
