<svg width="40" height="40" viewBox="0 0 40 40" fill="none" xmlns="http://www.w3.org/2000/svg">
<path fill-rule="evenodd" clip-rule="evenodd" d="M20 8.01465C14.666 8.01465 11.334 10.6646 10 15.9666C12 13.3166 14.334 12.3226 17 12.9846C18.522 13.3626 19.61 14.4606 20.812 15.6746C22.774 17.6526 25.044 19.9426 30 19.9426C35.334 19.9426 38.666 17.2926 40 11.9906C38 14.6406 35.668 15.6346 33 14.9726C31.478 14.5946 30.39 13.4966 29.186 12.2826C27.226 10.3026 24.958 8.01465 20 8.01465ZM10 19.9426C4.666 19.9426 1.334 22.5926 0 27.8946C2 25.2426 4.334 24.2506 7 24.9126C8.522 25.2906 9.61 26.3886 10.814 27.6026C12.774 29.5807 15.044 31.8707 20.002 31.8707C25.336 31.8707 28.668 29.2206 30.002 23.9186C28.002 26.5686 25.668 27.5627 23.002 26.9007C21.48 26.5226 20.392 25.4246 19.19 24.2106C17.226 22.2326 14.956 19.9426 10 19.9426Z" fill="#00BCFF"/>
</svg>
