<svg width="40" height="40" viewBox="0 0 40 40" fill="none" xmlns="http://www.w3.org/2000/svg">
<path d="M19.999 0C8.95651 0 0 8.9545 0 19.999C0 31.0455 8.9545 40 19.999 40C31.0455 40 40 31.0455 40 20.001C40 8.95451 31.0455 0 20.001 0H19.999ZM2.85872 19.999C2.85872 17.5807 3.39523 15.2805 4.34413 13.2045L12.5219 35.0253C6.80246 32.3207 2.85872 26.6073 2.85872 20.001V19.999ZM20.003 36.7009C18.3646 36.6992 16.7342 36.4709 15.1584 36.0222L20.3033 21.4624L25.5683 35.5237L25.6884 35.756C23.8583 36.382 21.9372 36.7012 20.003 36.7009ZM22.3572 12.1716C23.3882 12.1175 24.3191 12.0114 24.3191 12.0114C25.242 11.9053 25.1359 10.5861 24.213 10.6361C24.213 10.6361 21.4344 10.8483 19.6407 10.8483C17.9591 10.8483 15.1244 10.6361 15.1244 10.6361C14.1995 10.5841 14.0934 11.9574 15.0143 12.0134C15.0143 12.0134 15.8911 12.1175 16.812 12.1716L19.4845 19.2983L15.7329 30.2587L9.49302 12.1736C10.528 12.1215 11.4549 12.0154 11.4549 12.0154C12.3758 11.9073 12.2697 10.5881 11.3468 10.6381C11.3468 10.6381 8.57014 10.8503 6.78044 10.8503L5.67739 10.8303C8.7403 6.29798 14.0093 3.30314 19.997 3.30314C24.4612 3.30314 28.5231 4.96472 31.576 7.6873L31.3518 7.67129C29.6682 7.67129 28.475 9.09864 28.475 10.6341C28.475 12.0114 29.2878 13.1725 30.1566 14.5498C30.8153 15.6649 31.57 17.0922 31.57 19.1542C31.57 20.5836 31.0095 22.2411 30.2688 24.5553L28.5551 30.1186L22.3572 12.1716ZM28.6172 34.4267L33.8562 19.6827C34.8371 17.3004 35.1574 15.3986 35.1574 13.703C35.1574 13.0884 35.1174 12.5179 35.0453 11.9854C36.4227 14.4316 37.1459 17.1917 37.1453 19.999C37.1433 26.1588 33.716 31.536 28.6172 34.4267Z" fill="#3858E9"/>
</svg>
